<?xml version="1.0" standalone="no"?>
<!DOCTYPE svg PUBLIC "-//W3C//DTD SVG 20010904//EN"
 "http://www.w3.org/TR/2001/REC-SVG-20010904/DTD/svg10.dtd">
<svg version="1.0" xmlns="http://www.w3.org/2000/svg"
 width="512.000000pt" height="512.000000pt" viewBox="0 0 512.000000 512.000000"
 preserveAspectRatio="xMidYMid meet">

<g transform="translate(0.000000,512.000000) scale(0.100000,-0.100000)"
fill="#000000" stroke="none">
<path d="M2490 5110 c0 -5 -6 -10 -13 -10 -20 0 -86 -67 -92 -92 -2 -13 -6
-39 -7 -58 -2 -26 -8 -36 -23 -38 -37 -6 -82 -31 -114 -64 -52 -53 -35 -60 19
-8 49 48 52 49 118 52 62 3 65 4 40 15 -23 10 -28 19 -28 48 0 28 5 38 24 46
16 8 22 17 19 29 -8 30 65 70 127 70 62 0 135 -40 127 -70 -3 -12 3 -21 19
-29 19 -8 24 -18 24 -46 0 -29 -5 -38 -27 -48 -26 -11 -24 -12 35 -15 35 -2
69 -7 75 -12 7 -5 27 -21 45 -36 17 -14 32 -32 32 -40 0 -8 5 -14 10 -14 19 0
10 27 -21 58 -32 33 -77 58 -114 64 -15 2 -21 12 -23 38 -1 19 -5 45 -7 58 -6
25 -72 92 -92 92 -7 0 -13 5 -13 10 0 6 -30 10 -70 10 -40 0 -70 -4 -70 -10z"/>
<path d="M2455 4990 c3 -5 11 -10 17 -10 6 0 21 -12 34 -27 13 -16 24 -23 24
-17 0 16 -50 64 -67 64 -8 0 -11 -4 -8 -10z"/>
<path d="M2616 4974 c-14 -15 -26 -32 -26 -38 0 -6 11 1 24 17 13 15 28 27 34
27 6 0 14 5 17 10 13 21 -24 9 -49 -16z"/>
<path d="M2540 4898 c0 -13 5 -30 10 -38 9 -13 11 -13 20 0 17 27 12 60 -10
60 -14 0 -20 -7 -20 -22z"/>
<path d="M2450 4880 c0 -5 5 -10 10 -10 6 0 26 -17 45 -37 35 -37 36 -40 33
-108 l-3 -70 -50 -5 c-77 -8 -29 -20 73 -19 95 0 165 17 79 18 -42 1 -49 4
-58 28 -18 47 -2 116 37 157 19 20 38 36 44 36 5 0 10 5 10 10 0 18 -22 10
-57 -21 -41 -35 -71 -34 -114 7 -26 25 -49 31 -49 14z"/>
<path d="M2190 4726 c0 -30 5 -58 10 -61 6 -4 10 17 10 54 0 34 -4 61 -10 61
-5 0 -10 -24 -10 -54z"/>
<path d="M2910 4719 c0 -37 4 -58 10 -54 6 3 10 31 10 61 0 30 -4 54 -10 54
-6 0 -10 -27 -10 -61z"/>
<path d="M2210 4630 c0 -18 7 -20 63 -20 34 0 69 5 77 10 11 7 -5 10 -52 10
-39 0 -68 4 -68 10 0 6 -4 10 -10 10 -5 0 -10 -9 -10 -20z"/>
<path d="M2890 4640 c0 -6 -29 -10 -67 -10 -48 0 -64 -3 -53 -10 8 -5 43 -10
78 -10 55 0 62 2 62 20 0 11 -4 20 -10 20 -5 0 -10 -4 -10 -10z"/>
<path d="M2110 4600 c-11 -7 -2 -10 33 -10 30 0 46 4 42 10 -8 13 -55 13 -75
0z"/>
<path d="M2935 4600 c-4 -6 12 -10 42 -9 36 0 43 3 28 9 -28 12 -63 12 -70 0z"/>
<path d="M2010 4570 c0 -13 40 -13 60 0 11 7 5 10 -22 10 -21 0 -38 -4 -38
-10z"/>
<path d="M3050 4570 c20 -13 60 -13 60 0 0 6 -17 10 -37 10 -28 0 -34 -3 -23
-10z"/>
<path d="M1935 4550 c-3 -6 5 -10 19 -10 14 0 28 5 31 10 3 6 -5 10 -19 10
-14 0 -28 -4 -31 -10z"/>
<path d="M3135 4550 c3 -5 17 -10 31 -10 14 0 22 4 19 10 -3 6 -17 10 -31 10
-14 0 -22 -4 -19 -10z"/>
<path d="M1870 4530 c-12 -8 -9 -10 13 -10 15 0 27 5 27 10 0 13 -20 13 -40 0z"/>
<path d="M3210 4530 c0 -5 12 -10 28 -10 21 0 24 2 12 10 -20 13 -40 13 -40 0z"/>
<path d="M1800 4500 c0 -13 20 -13 40 0 12 8 9 10 -12 10 -16 0 -28 -4 -28
-10z"/>
<path d="M3280 4500 c20 -13 40 -13 40 0 0 6 -12 10 -27 10 -22 0 -25 -2 -13
-10z"/>
<path d="M1745 4480 c-3 -5 3 -10 14 -10 11 0 23 5 26 10 3 6 -3 10 -14 10
-11 0 -23 -4 -26 -10z"/>
<path d="M3335 4480 c3 -5 15 -10 26 -10 11 0 17 5 14 10 -3 6 -15 10 -26 10
-11 0 -17 -4 -14 -10z"/>
<path d="M1695 4460 c-3 -5 3 -10 14 -10 12 0 21 5 21 10 0 6 -6 10 -14 10 -8
0 -18 -4 -21 -10z"/>
<path d="M3390 4460 c0 -5 9 -10 21 -10 11 0 17 5 14 10 -3 6 -13 10 -21 10
-8 0 -14 -4 -14 -10z"/>
<path d="M1580 4403 c-36 -19 -66 -39 -68 -44 -2 -5 -12 -9 -23 -9 -10 0 -19
-4 -19 -10 0 -5 -7 -10 -15 -10 -8 0 -15 -4 -15 -10 0 -12 27 -14 32 -2 4 9
76 51 101 59 9 3 17 9 17 14 0 5 6 9 13 9 15 0 77 29 77 36 0 12 -42 -2 -100
-33z"/>
<path d="M3445 4430 c3 -5 13 -10 21 -10 8 0 14 5 14 10 0 6 -9 10 -21 10 -11
0 -17 -4 -14 -10z"/>
<path d="M795 4407 c-27 -16 -67 -58 -82 -85 -14 -23 -18 -148 -5 -155 4 -2
18 7 31 20 24 23 24 23 3 23 -20 0 -22 5 -22 50 0 46 4 54 45 95 41 41 49 45
95 45 45 0 50 -2 50 -22 0 -21 0 -21 23 3 13 13 22 27 20 32 -6 12 -136 7
-158 -6z"/>
<path d="M3490 4410 c0 -5 9 -10 19 -10 11 0 21 -5 23 -11 2 -6 13 -10 23 -7
17 3 14 7 -14 21 -39 19 -51 21 -51 7z"/>
<path d="M4167 4413 c-2 -5 7 -19 20 -32 23 -24 23 -24 23 -3 0 20 5 22 50 22
46 0 54 -4 95 -45 41 -41 45 -49 45 -95 0 -45 -2 -50 -22 -50 l-23 0 24 -19
c23 -17 23 -19 7 -44 -23 -34 -43 -40 -79 -22 -16 8 -51 15 -77 15 -26 0 -50
3 -53 7 -9 9 22 43 40 43 16 0 17 12 1 28 -16 16 -28 15 -28 -1 0 -18 -34 -49
-43 -40 -4 3 -7 29 -7 58 0 28 -4 55 -9 61 -21 23 -22 53 -1 74 29 29 17 37
-16 11 l-27 -21 -34 20 c-37 22 -63 26 -63 10 0 -5 11 -10 23 -10 15 0 40 -17
67 -47 43 -45 44 -48 44 -113 0 -59 -4 -73 -28 -104 -30 -40 -69 -61 -91 -49
-7 5 -33 26 -57 48 -23 23 -61 54 -83 70 -67 50 -75 59 -75 78 0 13 -5 17 -18
13 -12 -4 -34 5 -60 24 -23 16 -46 30 -52 30 -5 0 -10 5 -10 10 0 6 -9 10 -20
10 -11 0 -20 5 -20 10 0 6 -8 10 -17 10 -15 0 -13 -4 7 -20 14 -11 31 -20 38
-20 6 0 12 -4 12 -10 0 -5 5 -10 10 -10 9 0 145 -94 160 -110 3 -3 23 -18 45
-34 52 -38 263 -249 301 -301 16 -22 31 -42 34 -45 16 -15 110 -151 110 -160
0 -5 3 -10 8 -10 4 0 16 -18 26 -40 11 -22 23 -40 28 -40 4 0 8 -9 8 -20 0
-11 5 -20 10 -20 6 0 10 -6 10 -13 0 -8 8 -29 17 -48 14 -28 18 -31 21 -14 3
10 -1 21 -7 23 -6 2 -11 11 -12 20 0 10 -9 31 -20 47 -11 17 -22 38 -25 48 -4
9 -10 17 -15 17 -5 0 -9 9 -9 20 0 11 -4 20 -10 20 -5 0 -10 6 -10 14 0 8 -4
16 -8 18 -17 7 -52 77 -46 92 4 11 1 16 -13 16 -19 0 -28 8 -78 75 -16 22 -47
60 -70 83 -22 24 -44 51 -49 59 -12 22 7 57 49 89 32 24 46 28 105 28 65 0 68
-1 113 -43 32 -30 47 -53 49 -75 3 -26 5 -28 12 -13 6 13 2 31 -13 57 -20 36
-20 38 -3 61 35 49 42 70 42 129 0 77 -31 129 -98 168 -23 13 -148 17 -155 5z"/>
<path d="M970 4390 c0 -5 4 -10 10 -10 23 0 31 -40 15 -74 -9 -19 -15 -47 -13
-63 4 -26 5 -25 13 12 10 49 78 125 112 125 12 0 23 5 23 10 0 16 -26 12 -63
-10 l-34 -20 -26 20 c-28 22 -37 25 -37 10z"/>
<path d="M1190 4390 c0 -5 12 -10 26 -10 14 0 23 4 19 10 -3 6 -15 10 -26 10
-10 0 -19 -4 -19 -10z"/>
<path d="M3885 4390 c-4 -6 5 -10 19 -10 14 0 26 5 26 10 0 6 -9 10 -19 10
-11 0 -23 -4 -26 -10z"/>
<path d="M1271 4347 c14 -12 31 -31 37 -42 10 -18 11 -18 12 -2 0 21 -43 67
-62 67 -7 0 -1 -10 13 -23z"/>
<path d="M3823 4345 c-13 -13 -23 -32 -23 -42 1 -16 2 -16 12 2 6 11 23 30 37
42 17 15 21 23 11 22 -8 0 -25 -11 -37 -24z"/>
<path d="M891 4295 c1 -46 1 -48 11 -22 7 20 7 35 0 50 -9 18 -11 14 -11 -28z"/>
<path d="M4217 4320 c-3 -11 -1 -33 3 -48 7 -23 8 -21 9 21 1 50 -3 60 -12 27z"/>
<path d="M1386 4285 c-11 -8 -28 -13 -38 -9 -13 4 -18 0 -18 -13 0 -19 -8 -28
-75 -78 -22 -16 -60 -47 -83 -70 -57 -53 -66 -57 -95 -46 -30 12 -77 70 -77
97 0 10 -4 25 -9 32 -6 10 -10 8 -14 -9 -6 -22 -7 -22 -27 -4 -11 10 -20 24
-20 32 0 17 -10 16 -34 -2 -19 -14 -19 -15 0 -21 27 -10 54 -35 48 -45 -3 -5
-29 -9 -58 -9 -28 0 -56 -4 -62 -9 -23 -21 -53 -22 -74 -1 -29 29 -37 17 -11
-16 l21 -27 -20 -34 c-22 -37 -26 -63 -10 -63 6 0 10 11 10 23 0 15 17 40 47
67 45 43 48 44 113 44 59 0 73 -4 104 -28 40 -30 61 -69 49 -91 -5 -7 -26 -33
-48 -57 -23 -23 -54 -61 -70 -83 -50 -67 -59 -75 -78 -75 -13 0 -17 -5 -13
-18 4 -12 -5 -34 -24 -60 -16 -23 -30 -46 -30 -52 0 -5 -4 -10 -10 -10 -5 0
-10 -9 -10 -20 0 -11 -4 -20 -9 -20 -5 0 -11 -8 -15 -17 -3 -10 -14 -31 -25
-48 -22 -34 -26 -55 -11 -55 6 0 10 9 10 20 0 11 5 20 10 20 6 0 10 7 10 16 0
8 11 30 25 48 14 18 25 38 25 44 0 7 5 12 10 12 6 0 10 5 10 10 0 12 100 153
112 158 5 2 8 8 8 13 0 15 38 57 170 189 132 132 174 170 189 170 5 0 11 3 13
8 2 4 28 25 58 46 30 22 59 43 65 48 16 15 -19 8 -39 -7z"/>
<path d="M2340 4271 c0 -4 99 -8 220 -8 121 0 217 4 214 8 -3 5 -102 9 -220 9
-118 0 -214 -4 -214 -9z"/>
<path d="M2210 4250 c-11 -7 -3 -10 28 -10 26 0 41 4 37 10 -8 13 -45 13 -65
0z"/>
<path d="M2845 4250 c-4 -6 11 -10 37 -10 31 0 39 3 28 10 -20 13 -57 13 -65
0z"/>
<path d="M780 4226 c0 -8 48 -12 66 -5 13 5 7 8 -23 8 -24 1 -43 -1 -43 -3z"/>
<path d="M2112 4220 c10 -6 25 -7 40 -1 20 9 18 10 -17 10 -31 0 -36 -2 -23
-9z"/>
<path d="M2968 4219 c15 -6 30 -5 40 1 13 7 8 9 -23 9 -35 0 -37 -1 -17 -10z"/>
<path d="M4278 4220 c13 -6 31 -6 45 0 18 7 14 9 -23 9 -37 0 -41 -2 -22 -9z"/>
<path d="M2025 4200 c-3 -6 5 -10 19 -10 14 0 28 5 31 10 3 6 -5 10 -19 10
-14 0 -28 -4 -31 -10z"/>
<path d="M3045 4200 c3 -5 17 -10 31 -10 14 0 22 4 19 10 -3 6 -17 10 -31 10
-14 0 -22 -4 -19 -10z"/>
<path d="M1965 4180 c-3 -5 3 -10 14 -10 12 0 21 5 21 10 0 6 -6 10 -14 10 -8
0 -18 -4 -21 -10z"/>
<path d="M3120 4180 c0 -5 9 -10 21 -10 11 0 17 5 14 10 -3 6 -13 10 -21 10
-8 0 -14 -4 -14 -10z"/>
<path d="M1905 4150 c3 -5 12 -7 20 -3 21 7 19 13 -6 13 -11 0 -18 -4 -14 -10z"/>
<path d="M2424 4149 c-10 -17 14 -35 28 -21 7 7 34 12 60 12 l48 0 0 -144 0
-145 -35 -37 c-45 -47 -36 -59 10 -14 l35 34 33 -32 c18 -18 38 -32 43 -32 6
0 19 -9 30 -21 14 -16 28 -20 63 -18 28 2 46 -1 49 -9 8 -25 22 -11 22 23 0
36 -8 43 -26 25 -7 -7 -33 -8 -68 -4 -47 6 -63 13 -91 41 -42 42 -47 66 -43
213 l3 115 43 3 c29 2 47 -2 58 -13 13 -13 19 -13 31 -3 13 10 13 14 -3 25
-23 17 -279 19 -290 2z"/>
<path d="M3180 4156 c0 -9 30 -14 35 -6 4 6 -3 10 -14 10 -12 0 -21 -2 -21 -4z"/>
<path d="M1845 4130 c-3 -5 3 -10 14 -10 12 0 21 5 21 10 0 6 -6 10 -14 10 -8
0 -18 -4 -21 -10z"/>
<path d="M2265 4130 c-8 -13 75 -13 95 0 11 7 0 10 -37 10 -28 0 -55 -4 -58
-10z"/>
<path d="M2760 4130 c20 -13 103 -13 95 0 -3 6 -30 10 -58 10 -37 0 -48 -3
-37 -10z"/>
<path d="M3240 4130 c0 -5 7 -10 15 -10 8 0 15 5 15 10 0 6 -7 10 -15 10 -8 0
-15 -4 -15 -10z"/>
<path d="M1800 4110 c-12 -8 -11 -10 8 -10 12 0 22 5 22 10 0 13 -11 13 -30 0z"/>
<path d="M2160 4110 c-11 -7 -4 -10 28 -10 23 0 42 5 42 10 0 13 -50 13 -70 0z"/>
<path d="M2890 4110 c0 -5 19 -10 43 -10 31 0 38 3 27 10 -20 13 -70 13 -70 0z"/>
<path d="M3290 4110 c0 -5 7 -10 16 -10 8 0 12 5 9 10 -3 6 -10 10 -16 10 -5
0 -9 -4 -9 -10z"/>
<path d="M1758 4083 c6 -2 18 -2 25 0 6 3 1 5 -13 5 -14 0 -19 -2 -12 -5z"/>
<path d="M2077 4079 c8 -8 19 -8 40 -1 28 10 28 10 -11 11 -29 1 -37 -2 -29
-10z"/>
<path d="M3003 4078 c21 -7 32 -7 40 1 8 8 0 11 -28 10 -40 -1 -40 -1 -12 -11z"/>
<path d="M3338 4083 c6 -2 18 -2 25 0 6 3 1 5 -13 5 -14 0 -19 -2 -12 -5z"/>
<path d="M2428 4060 c-12 -39 -10 -96 3 -83 5 5 9 32 7 59 -2 40 -4 44 -10 24z"/>
<path d="M1710 4060 c0 -5 4 -10 9 -10 6 0 13 5 16 10 3 6 -1 10 -9 10 -9 0
-16 -4 -16 -10z"/>
<path d="M2000 4060 c-8 -5 -24 -12 -35 -16 -19 -7 -19 -7 -1 -11 10 -3 23 0
29 6 6 6 21 11 33 11 13 0 26 5 29 10 8 12 -34 12 -55 0z"/>
<path d="M2700 4026 c0 -25 5 -48 10 -51 6 -4 10 11 10 39 0 25 -4 48 -10 51
-6 4 -10 -11 -10 -39z"/>
<path d="M3065 4060 c3 -5 15 -10 26 -10 10 0 19 5 19 10 0 6 -12 10 -26 10
-14 0 -23 -4 -19 -10z"/>
<path d="M3385 4060 c3 -5 10 -10 16 -10 5 0 9 5 9 10 0 6 -7 10 -16 10 -8 0
-12 -4 -9 -10z"/>
<path d="M1675 4040 c-3 -5 1 -10 9 -10 9 0 16 5 16 10 0 6 -4 10 -9 10 -6 0
-13 -4 -16 -10z"/>
<path d="M3125 4040 c3 -5 15 -10 26 -10 11 0 17 5 14 10 -3 6 -15 10 -26 10
-11 0 -17 -4 -14 -10z"/>
<path d="M3420 4040 c0 -5 7 -10 16 -10 8 0 12 5 9 10 -3 6 -10 10 -16 10 -5
0 -9 -4 -9 -10z"/>
<path d="M1908 4023 c-10 -3 -18 -9 -18 -14 0 -5 -6 -9 -12 -9 -18 0 -118 -53
-118 -62 0 -13 17 -9 30 7 7 8 21 15 31 15 11 0 19 5 19 10 0 6 6 10 13 10 21
0 91 36 81 42 -5 2 -17 3 -26 1z"/>
<path d="M3185 4020 c-7 -12 27 -22 37 -12 6 6 1 12 -11 15 -12 3 -23 2 -26
-3z"/>
<path d="M1630 4010 c0 -5 -7 -10 -15 -10 -8 0 -15 -4 -15 -10 0 -15 9 -12 37
10 19 15 21 20 9 20 -9 0 -16 -4 -16 -10z"/>
<path d="M3483 4000 c28 -22 37 -25 37 -10 0 6 -7 10 -15 10 -8 0 -15 5 -15
10 0 6 -7 10 -16 10 -12 0 -10 -5 9 -20z"/>
<path d="M3235 3990 c3 -5 15 -10 26 -10 10 0 19 -4 19 -10 0 -5 8 -10 19 -10
10 0 24 -7 31 -15 13 -16 30 -20 30 -7 0 10 -100 62 -118 62 -7 0 -10 -4 -7
-10z"/>
<path d="M1548 3955 c-15 -14 -32 -25 -38 -25 -5 0 -10 -5 -10 -11 0 -7 11 -4
27 7 37 24 69 54 57 54 -5 0 -21 -11 -36 -25z"/>
<path d="M3565 3945 c41 -36 55 -42 55 -25 0 6 -5 10 -10 10 -6 0 -23 11 -38
25 -15 14 -31 25 -37 25 -5 0 8 -16 30 -35z"/>
<path d="M2400 3924 c0 -14 4 -23 10 -19 6 3 10 15 10 26 0 10 -4 19 -10 19
-5 0 -10 -12 -10 -26z"/>
<path d="M2726 3942 c-4 -7 -3 -19 2 -28 12 -21 22 -5 12 20 -4 13 -9 16 -14
8z"/>
<path d="M720 3911 c0 -11 5 -23 10 -26 6 -4 10 5 10 19 0 14 -4 26 -10 26 -5
0 -10 -9 -10 -19z"/>
<path d="M1720 3921 c0 -5 -8 -11 -17 -14 -57 -15 -307 -237 -388 -342 -66
-85 -105 -143 -105 -154 0 -6 -4 -11 -9 -11 -5 0 -11 -8 -14 -17 -3 -10 -20
-42 -36 -71 -17 -29 -31 -60 -31 -67 0 -8 -4 -15 -9 -15 -11 0 -21 -36 -13
-45 7 -6 42 62 42 82 0 7 5 13 10 13 6 0 10 8 10 19 0 10 7 24 15 31 8 7 15
19 15 26 0 8 5 14 10 14 6 0 10 5 10 11 0 6 16 33 35 59 19 26 35 52 35 56 1
5 19 27 40 49 l40 40 30 -32 c16 -18 30 -36 30 -40 0 -5 11 -20 25 -35 14 -15
25 -34 25 -43 0 -8 5 -15 10 -15 6 0 10 -9 10 -19 0 -11 5 -23 10 -26 6 -3 10
1 10 9 0 27 -61 125 -117 187 l-23 25 27 37 c16 20 33 36 38 37 6 0 56 -46
113 -103 97 -97 102 -105 102 -144 0 -59 18 -64 22 -6 l3 48 45 3 c70 5 73 22
4 22 l-60 0 -97 96 c-53 52 -97 101 -97 108 0 15 37 50 62 59 11 4 34 -8 65
-33 26 -22 53 -40 60 -40 7 0 13 -3 13 -7 0 -9 57 -43 71 -43 5 0 9 5 9 10 0
6 -7 10 -16 10 -8 0 -30 11 -48 25 -18 14 -37 25 -42 25 -5 1 -27 19 -49 40
l-40 40 32 30 c18 16 36 30 41 30 5 0 21 11 35 24 14 13 39 30 56 37 33 15 41
29 16 29 -8 0 -15 -4 -15 -9z"/>
<path d="M3370 3920 c0 -5 7 -10 15 -10 8 0 15 -4 15 -10 0 -5 4 -10 10 -10
22 0 170 -114 170 -132 0 -4 -27 -26 -60 -50 -53 -37 -72 -58 -54 -58 7 0 72
48 105 77 l25 23 37 -27 c20 -16 36 -32 37 -38 0 -5 -48 -58 -108 -116 -103
-101 -109 -105 -145 -101 -22 2 -37 0 -37 -6 0 -6 19 -12 43 -14 l42 -3 3 -52
c4 -72 22 -67 22 5 l0 59 93 96 c52 54 100 97 109 97 20 0 58 -42 58 -65 0
-17 -46 -86 -62 -93 -4 -2 -8 -9 -8 -17 0 -7 -7 -18 -15 -25 -17 -14 -20 -30
-5 -30 6 0 15 11 19 23 5 13 29 46 54 73 51 56 55 55 107 -27 18 -27 35 -49
39 -49 4 0 13 -16 21 -35 14 -36 30 -47 30 -20 0 8 -4 15 -10 15 -5 0 -10 5
-10 11 0 27 -141 203 -241 299 -93 90 -235 200 -258 200 -6 0 -11 5 -11 10 0
6 -7 10 -15 10 -8 0 -15 -4 -15 -10z"/>
<path d="M4380 3904 c0 -14 4 -23 10 -19 6 3 10 15 10 26 0 10 -4 19 -10 19
-5 0 -10 -12 -10 -26z"/>
<path d="M1425 3855 c-33 -30 -57 -55 -52 -55 4 0 22 13 40 29 17 16 43 39 56
50 13 12 22 23 20 26 -3 2 -32 -20 -64 -50z"/>
<path d="M3630 3905 c0 -4 19 -24 42 -44 23 -20 59 -53 80 -73 21 -21 38 -34
38 -29 0 4 -26 32 -58 62 -84 78 -102 93 -102 84z"/>
<path d="M2380 3871 c0 -10 -7 -24 -15 -31 -16 -14 -21 -55 -5 -45 6 3 10 13
10 21 0 9 7 22 15 30 17 17 20 44 5 44 -5 0 -10 -8 -10 -19z"/>
<path d="M2750 3866 c0 -14 5 -26 10 -26 6 0 10 -9 10 -19 0 -11 5 -23 10 -26
6 -3 10 3 10 14 0 11 -4 23 -10 26 -5 3 -10 15 -10 25 0 10 -4 22 -10 25 -6 4
-10 -5 -10 -19z"/>
<path d="M750 3862 c0 -19 46 -62 67 -62 16 1 16 2 -2 12 -11 6 -30 23 -42 37
-13 14 -23 20 -23 13z"/>
<path d="M4345 3847 c-11 -13 -29 -29 -40 -35 -18 -10 -18 -11 -2 -12 21 0 70
46 65 61 -2 5 -12 -1 -23 -14z"/>
<path d="M1281 3713 c-39 -42 -69 -79 -67 -81 3 -2 22 15 43 39 21 23 55 60
75 81 21 21 33 38 29 38 -5 0 -41 -35 -80 -77z"/>
<path d="M2330 3750 c0 -17 4 -38 9 -48 5 -9 13 -26 17 -37 6 -18 7 -18 11 -2
3 10 0 24 -6 31 -20 24 -3 42 35 38 36 -4 84 13 84 31 0 6 -23 7 -59 3 -38 -4
-62 -3 -66 4 -12 20 -25 10 -25 -20z"/>
<path d="M3800 3747 c0 -4 13 -22 29 -40 16 -17 39 -43 50 -56 12 -13 23 -22
26 -20 2 3 -20 32 -50 64 -30 33 -55 57 -55 52z"/>
<path d="M2465 3710 c3 -5 13 -10 22 -10 9 0 29 -14 45 -32 l28 -32 0 -213 0
-214 -47 3 c-48 3 -48 3 -54 43 -5 34 -6 36 -8 10 -1 -16 -4 -40 -7 -52 -6
-23 -5 -23 102 -23 66 0 104 4 99 9 -6 5 -21 11 -35 13 l-25 3 -3 200 c-3 227
2 250 67 282 29 14 32 18 16 21 -10 2 -21 -1 -23 -7 -2 -6 -10 -11 -18 -11 -8
0 -14 -3 -14 -8 0 -4 -9 -13 -20 -20 -18 -11 -25 -9 -58 18 -34 28 -81 42 -67
20z"/>
<path d="M2777 3693 c-11 -10 -8 -43 3 -43 6 0 10 11 10 25 0 26 -2 29 -13 18z"/>
<path d="M3420 3640 c0 -5 4 -10 9 -10 6 0 13 5 16 10 3 6 -1 10 -9 10 -9 0
-16 -4 -16 -10z"/>
<path d="M2381 3611 c-1 -27 2 -32 11 -23 8 8 8 17 0 34 -10 22 -11 21 -11
-11z"/>
<path d="M2750 3609 c0 -17 4 -28 10 -24 6 3 10 17 10 31 0 13 -4 24 -10 24
-5 0 -10 -14 -10 -31z"/>
<path d="M1765 3620 c3 -5 17 -10 31 -10 14 0 22 4 19 10 -3 6 -17 10 -31 10
-14 0 -22 -4 -19 -10z"/>
<path d="M3370 3620 c0 -5 9 -10 20 -10 11 0 20 5 20 10 0 6 -9 10 -20 10 -11
0 -20 -4 -20 -10z"/>
<path d="M1190 3605 c0 -8 2 -15 4 -15 2 0 6 7 10 15 3 8 1 15 -4 15 -6 0 -10
-7 -10 -15z"/>
<path d="M3916 3607 c3 -10 9 -15 12 -12 3 3 0 11 -7 18 -10 9 -11 8 -5 -6z"/>
<path d="M1830 3602 c0 -5 10 -13 21 -18 20 -9 20 -11 5 -26 -9 -9 -28 -26
-43 -38 -25 -19 -26 -23 -10 -31 9 -6 17 -18 17 -27 0 -9 12 3 27 28 36 62 63
79 63 41 0 -11 5 -23 10 -26 14 -8 13 16 -2 46 -16 35 -88 76 -88 51z"/>
<path d="M3310 3600 c-12 -8 -9 -10 13 -10 15 0 27 5 27 10 0 13 -20 13 -40 0z"/>
<path d="M1171 3574 c0 -11 3 -14 6 -6 3 7 2 16 -1 19 -3 4 -6 -2 -5 -13z"/>
<path d="M3941 3574 c0 -11 3 -14 6 -6 3 7 2 16 -1 19 -3 4 -6 -2 -5 -13z"/>
<path d="M3232 3557 c-21 -22 -29 -47 -16 -47 4 0 12 7 18 15 10 14 16 9 44
-30 17 -25 32 -52 32 -60 0 -8 5 -15 11 -15 7 0 9 9 6 21 -4 14 0 22 14 27 17
7 15 12 -26 42 -49 37 -51 40 -33 58 9 9 7 12 -8 12 -11 0 -30 -10 -42 -23z"/>
<path d="M2726 3544 c-4 -15 -2 -32 3 -37 8 -8 11 0 11 26 0 44 -5 47 -14 11z"/>
<path d="M1147 3553 c-4 -3 -7 -11 -7 -17 0 -6 5 -5 12 2 6 6 9 14 7 17 -3 3
-9 2 -12 -2z"/>
<path d="M2400 3531 c0 -16 5 -33 10 -36 6 -4 10 6 10 24 0 16 -4 33 -10 36
-6 4 -10 -6 -10 -24z"/>
<path d="M3960 3551 c0 -5 5 -13 10 -16 6 -3 10 -2 10 4 0 5 -4 13 -10 16 -5
3 -10 2 -10 -4z"/>
<path d="M1120 3510 c0 -5 5 -10 10 -10 6 0 10 5 10 10 0 6 -4 10 -10 10 -5 0
-10 -4 -10 -10z"/>
<path d="M3980 3511 c0 -6 5 -13 10 -16 6 -3 10 1 10 9 0 9 -4 16 -10 16 -5 0
-10 -4 -10 -9z"/>
<path d="M1101 3474 c0 -11 3 -14 6 -6 3 7 2 16 -1 19 -3 4 -6 -2 -5 -13z"/>
<path d="M1930 3483 c0 -5 5 -15 10 -23 8 -12 10 -11 10 8 0 12 -4 22 -10 22
-5 0 -10 -3 -10 -7z"/>
<path d="M3190 3471 c0 -11 -4 -23 -10 -26 -5 -3 -10 -15 -10 -26 0 -10 -5
-19 -10 -19 -6 0 -18 -18 -27 -40 -10 -22 -21 -40 -25 -40 -5 0 -8 -6 -8 -13
0 -8 -11 -24 -25 -37 -14 -13 -25 -27 -25 -32 0 -16 -116 -138 -131 -138 -4 0
-11 5 -14 10 -3 6 -10 10 -16 10 -5 0 -9 -4 -9 -10 0 -5 4 -10 9 -10 6 0 22
-11 37 -25 28 -26 44 -32 44 -15 0 6 -4 10 -10 10 -20 0 -9 28 26 66 48 52
116 141 139 184 11 19 22 37 25 40 9 9 60 111 60 121 0 5 -4 9 -10 9 -5 0 -10
-9 -10 -19z"/>
<path d="M4011 3474 c0 -11 3 -14 6 -6 3 7 2 16 -1 19 -3 4 -6 -2 -5 -13z"/>
<path d="M680 3459 c0 -11 5 -17 10 -14 6 3 10 13 10 21 0 8 -4 14 -10 14 -5
0 -10 -9 -10 -21z"/>
<path d="M2420 3428 c0 -24 5 -50 10 -58 7 -11 10 0 10 37 0 28 -4 55 -10 58
-6 4 -10 -11 -10 -37z"/>
<path d="M2708 3464 c-5 -4 -8 -30 -8 -58 0 -35 3 -47 11 -39 5 5 9 32 7 58
-2 26 -6 43 -10 39z"/>
<path d="M1076 3441 c-4 -7 -5 -15 -2 -18 9 -9 19 4 14 18 -4 11 -6 11 -12 0z"/>
<path d="M1961 3438 c-1 -10 7 -32 18 -50 48 -85 57 -98 64 -98 4 0 7 -7 7
-15 0 -8 3 -15 8 -15 4 0 18 -17 32 -37 14 -21 42 -55 63 -76 22 -22 36 -45
33 -53 -7 -18 13 -18 37 0 23 18 22 26 -5 27 -15 0 -40 20 -73 60 -27 33 -60
72 -72 87 -13 15 -23 32 -23 37 0 6 -11 22 -25 37 -14 15 -25 34 -25 43 0 8
-4 15 -8 15 -5 0 -13 12 -19 28 -7 17 -11 21 -12 10z"/>
<path d="M4030 3436 c0 -9 5 -16 10 -16 6 0 10 4 10 9 0 6 -4 13 -10 16 -5 3
-10 -1 -10 -9z"/>
<path d="M1797 3420 c-3 -14 -7 -35 -7 -47 0 -17 -6 -23 -22 -23 -13 0 -30 -5
-38 -10 -11 -7 -6 -10 20 -10 32 0 49 -14 190 -155 141 -141 154 -157 142
-175 -18 -29 0 -24 31 8 32 33 34 42 9 42 -9 0 -82 65 -162 145 -144 144 -144
145 -150 197 -4 43 -7 48 -13 28z"/>
<path d="M655 3417 c-4 -10 -5 -21 -1 -24 10 -10 18 4 13 24 -4 17 -4 17 -12
0z"/>
<path d="M4450 3411 c0 -12 5 -21 10 -21 6 0 10 6 10 14 0 8 -4 18 -10 21 -5
3 -10 -3 -10 -14z"/>
<path d="M1050 3394 c0 -8 5 -12 10 -9 6 3 10 10 10 16 0 5 -4 9 -10 9 -5 0
-10 -7 -10 -16z"/>
<path d="M3635 3397 c-4 -10 -5 -21 -1 -24 10 -10 18 4 13 24 -4 17 -4 17 -12
0z"/>
<path d="M4050 3401 c0 -5 5 -13 10 -16 6 -3 10 -2 10 4 0 5 -4 13 -10 16 -5
3 -10 2 -10 -4z"/>
<path d="M3330 3364 c0 -24 -27 -55 -155 -184 -142 -142 -156 -154 -175 -142
-29 18 -25 0 8 -31 33 -32 42 -34 42 -9 0 17 230 260 280 295 14 10 43 17 69
17 54 0 47 12 -12 19 -35 5 -42 10 -43 29 -2 34 -14 40 -14 6z"/>
<path d="M638 3374 c-5 -4 -8 -16 -8 -28 0 -14 3 -17 11 -9 6 6 9 19 7 28 -1
9 -6 13 -10 9z"/>
<path d="M4470 3361 c0 -11 5 -23 10 -26 6 -3 10 3 10 14 0 11 -4 23 -10 26
-5 3 -10 -3 -10 -14z"/>
<path d="M1031 3354 c0 -11 3 -14 6 -6 3 7 2 16 -1 19 -3 4 -6 -2 -5 -13z"/>
<path d="M4081 3354 c0 -11 3 -14 6 -6 3 7 2 16 -1 19 -3 4 -6 -2 -5 -13z"/>
<path d="M1510 3348 c0 -7 5 -20 10 -28 8 -12 10 -9 10 13 0 15 -4 27 -10 27
-5 0 -10 -6 -10 -12z"/>
<path d="M1611 3316 c-19 -25 -37 -46 -39 -46 -3 0 -11 8 -18 18 -12 16 -13
16 -14 -4 0 -25 42 -74 65 -74 8 0 15 5 15 10 0 6 -6 10 -14 10 -31 0 -23 18
20 48 24 18 51 32 59 32 8 0 15 5 15 10 0 6 -11 10 -24 10 -14 0 -26 7 -28 16
-2 11 -14 1 -37 -30z"/>
<path d="M3610 3334 c0 -14 4 -23 10 -19 6 3 10 15 10 26 0 10 -4 19 -10 19
-5 0 -10 -12 -10 -26z"/>
<path d="M3930 3351 c0 -5 7 -14 15 -21 8 -7 15 -21 15 -31 0 -11 5 -19 10
-19 6 0 10 -6 10 -13 0 -20 35 -88 42 -82 8 9 -2 45 -13 45 -5 0 -9 6 -9 13 0
17 -53 117 -62 117 -4 0 -8 -4 -8 -9z"/>
<path d="M3486 3315 c-3 -8 -13 -15 -23 -15 -11 0 1 -11 27 -27 65 -38 79 -63
35 -63 -14 0 -25 -4 -25 -10 0 -16 33 -11 56 8 31 25 57 69 48 83 -4 8 -11 2
-18 -16 l-12 -28 -32 34 c-17 19 -32 37 -32 42 0 13 -18 7 -24 -8z"/>
<path d="M610 3293 c0 -22 2 -25 10 -13 13 20 13 40 0 40 -5 0 -10 -12 -10
-27z"/>
<path d="M1005 3311 c-3 -5 -1 -12 5 -16 5 -3 10 1 10 9 0 18 -6 21 -15 7z"/>
<path d="M4100 3304 c0 -8 5 -12 10 -9 6 4 8 11 5 16 -9 14 -15 11 -15 -7z"/>
<path d="M4490 3308 c0 -7 5 -20 10 -28 8 -12 10 -9 10 13 0 15 -4 27 -10 27
-5 0 -10 -6 -10 -12z"/>
<path d="M2688 3280 c-3 -8 -9 -32 -12 -52 -6 -44 15 -62 62 -55 l27 4 -32 8
c-30 7 -32 10 -35 59 -2 28 -6 44 -10 36z"/>
<path d="M980 3254 c0 -8 5 -12 10 -9 6 3 10 10 10 16 0 5 -4 9 -10 9 -5 0
-10 -7 -10 -16z"/>
<path d="M4120 3255 c0 -8 5 -15 10 -15 6 0 10 7 10 15 0 8 -4 15 -10 15 -5 0
-10 -7 -10 -15z"/>
<path d="M586 3242 c-4 -13 -5 -26 -2 -29 10 -11 18 4 14 29 l-4 23 -8 -23z"/>
<path d="M4520 3238 c0 -16 5 -28 10 -28 13 0 13 20 0 40 -8 12 -10 9 -10 -12z"/>
<path d="M962 3200 c0 -14 2 -19 5 -12 2 6 2 18 0 25 -3 6 -5 1 -5 -13z"/>
<path d="M4152 3200 c0 -14 2 -19 5 -12 2 6 2 18 0 25 -3 6 -5 1 -5 -13z"/>
<path d="M1635 3200 c3 -5 15 -10 26 -10 10 0 19 -3 19 -7 0 -5 20 -17 45 -28
25 -11 45 -23 45 -27 0 -5 5 -8 11 -8 29 0 239 -174 239 -199 0 -5 -4 -13 -10
-16 -5 -3 -10 -10 -10 -16 0 -5 5 -9 10 -9 6 0 10 4 10 9 0 6 11 22 25 37 26
28 32 44 15 44 -5 0 -10 -4 -10 -10 0 -22 -28 -6 -90 50 -36 33 -69 60 -73 60
-4 0 -20 11 -35 25 -15 14 -32 25 -39 25 -7 0 -13 3 -13 8 0 4 -17 15 -37 25
-21 10 -51 26 -68 36 -32 21 -70 28 -60 11z"/>
<path d="M560 3159 c0 -17 4 -28 10 -24 6 3 10 17 10 31 0 13 -4 24 -10 24 -5
0 -10 -14 -10 -31z"/>
<path d="M2370 3180 c-11 -7 -7 -10 18 -10 20 0 31 4 27 10 -8 13 -26 13 -45
0z"/>
<path d="M3455 3180 c-3 -5 3 -10 14 -10 12 0 21 5 21 10 0 6 -6 10 -14 10 -8
0 -18 -4 -21 -10z"/>
<path d="M4540 3161 c0 -17 5 -31 10 -31 6 0 10 11 10 24 0 14 -4 28 -10 31
-6 4 -10 -7 -10 -24z"/>
<path d="M1077 3173 c-11 -10 -8 -43 3 -43 6 0 10 11 10 25 0 26 -2 29 -13 18z"/>
<path d="M4030 3151 c0 -12 5 -21 10 -21 6 0 10 6 10 14 0 8 -4 18 -10 21 -5
3 -10 -3 -10 -14z"/>
<path d="M937 3145 c-4 -8 -2 -17 3 -20 6 -4 10 3 10 14 0 25 -6 27 -13 6z"/>
<path d="M2305 3150 c3 -5 12 -7 20 -3 21 7 19 13 -6 13 -11 0 -18 -4 -14 -10z"/>
<path d="M2780 3156 c0 -9 30 -14 35 -6 4 6 -3 10 -14 10 -12 0 -21 -2 -21 -4z"/>
<path d="M3400 3152 c0 -4 -15 -13 -32 -21 -40 -17 -180 -122 -227 -168 -18
-19 -39 -32 -47 -29 -18 7 -18 -13 0 -36 17 -24 26 -23 26 2 0 12 14 34 31 51
44 43 185 149 198 149 6 0 11 3 11 8 0 4 18 15 40 25 44 19 50 27 20 27 -11 0
-20 -3 -20 -8z"/>
<path d="M4170 3139 c0 -11 4 -18 10 -14 5 3 7 12 3 20 -7 21 -13 19 -13 -6z"/>
<path d="M2255 3130 c-3 -5 1 -10 9 -10 8 0 18 5 21 10 3 6 -1 10 -9 10 -8 0
-18 -4 -21 -10z"/>
<path d="M2835 3130 c3 -5 13 -10 21 -10 8 0 12 5 9 10 -3 6 -13 10 -21 10 -8
0 -12 -4 -9 -10z"/>
<path d="M1058 3114 c-5 -4 -8 -19 -8 -33 0 -18 3 -22 11 -14 6 6 9 21 7 33
-1 12 -6 18 -10 14z"/>
<path d="M4050 3096 c0 -14 5 -28 10 -31 6 -3 10 5 10 19 0 14 -4 28 -10 31
-6 3 -10 -5 -10 -19z"/>
<path d="M540 3073 c0 -28 3 -34 10 -23 13 20 13 60 0 60 -5 0 -10 -17 -10
-37z"/>
<path d="M4560 3088 c0 -13 5 -30 10 -38 7 -11 10 -5 10 23 0 20 -4 37 -10 37
-5 0 -10 -10 -10 -22z"/>
<path d="M910 3070 c0 -11 5 -20 10 -20 6 0 10 9 10 20 0 11 -4 20 -10 20 -5
0 -10 -9 -10 -20z"/>
<path d="M4190 3070 c0 -11 5 -20 10 -20 6 0 10 9 10 20 0 11 -4 20 -10 20 -5
0 -10 -9 -10 -20z"/>
<path d="M2150 3060 c0 -5 5 -10 10 -10 6 0 10 5 10 10 0 6 -4 10 -10 10 -5 0
-10 -4 -10 -10z"/>
<path d="M1030 3018 c0 -25 3 -29 10 -18 13 20 13 50 0 50 -5 0 -10 -15 -10
-32z"/>
<path d="M4074 3036 c-3 -8 -1 -23 5 -33 9 -15 10 -13 11 15 0 34 -7 42 -16
18z"/>
<path d="M2538 3033 c12 -2 32 -2 45 0 12 2 2 4 -23 4 -25 0 -35 -2 -22 -4z"/>
<path d="M516 3004 c-9 -24 -7 -62 4 -69 6 -4 10 12 10 39 0 48 -4 56 -14 30z"/>
<path d="M2423 3013 c9 -2 23 -2 30 0 6 3 -1 5 -18 5 -16 0 -22 -2 -12 -5z"/>
<path d="M2673 3013 c9 -2 23 -2 30 0 6 3 -1 5 -18 5 -16 0 -22 -2 -12 -5z"/>
<path d="M4591 2977 c-1 -30 3 -46 9 -42 12 7 12 42 0 70 -6 15 -9 8 -9 -28z"/>
<path d="M892 2985 c0 -16 2 -22 5 -12 2 9 2 23 0 30 -3 6 -5 -1 -5 -18z"/>
<path d="M4222 2985 c0 -16 2 -22 5 -12 2 9 2 23 0 30 -3 6 -5 -1 -5 -18z"/>
<path d="M2350 2990 c0 -5 7 -10 15 -10 8 0 15 5 15 10 0 6 -7 10 -15 10 -8 0
-15 -4 -15 -10z"/>
<path d="M2740 2990 c0 -5 7 -10 15 -10 8 0 15 5 15 10 0 6 -7 10 -15 10 -8 0
-15 -4 -15 -10z"/>
<path d="M2315 2970 c-3 -5 -1 -10 4 -10 6 0 11 5 11 10 0 6 -2 10 -4 10 -3 0
-8 -4 -11 -10z"/>
<path d="M2790 2970 c0 -5 5 -10 11 -10 5 0 7 5 4 10 -3 6 -8 10 -11 10 -2 0
-4 -4 -4 -10z"/>
<path d="M1007 2963 c-11 -10 -8 -63 3 -63 6 0 10 16 10 35 0 36 -2 40 -13 28z"/>
<path d="M3050 2960 c0 -5 5 -10 10 -10 6 0 10 5 10 10 0 6 -4 10 -10 10 -5 0
-10 -4 -10 -10z"/>
<path d="M4100 2938 c0 -21 5 -38 10 -38 13 0 13 40 0 60 -7 11 -10 5 -10 -22z"/>
<path d="M340 2920 c0 -6 27 -10 61 -10 37 0 58 4 54 10 -3 6 -31 10 -61 10
-30 0 -54 -4 -54 -10z"/>
<path d="M2245 2920 c-3 -5 -2 -10 4 -10 5 0 13 5 16 10 3 6 2 10 -4 10 -5 0
-13 -4 -16 -10z"/>
<path d="M2855 2920 c3 -5 11 -10 16 -10 6 0 7 5 4 10 -3 6 -11 10 -16 10 -6
0 -7 -4 -4 -10z"/>
<path d="M4665 2920 c-4 -6 17 -10 54 -10 34 0 61 4 61 10 0 6 -24 10 -54 10
-30 0 -58 -4 -61 -10z"/>
<path d="M867 2898 c-3 -12 -2 -29 3 -37 7 -12 9 -6 10 22 0 42 -5 48 -13 15z"/>
<path d="M4241 2880 c0 -37 2 -41 9 -22 6 13 6 31 0 45 -7 18 -9 14 -9 -23z"/>
<path d="M272 2879 c-33 -32 -58 -77 -64 -114 -2 -15 -12 -21 -38 -23 -19 -1
-45 -5 -58 -7 -25 -6 -92 -72 -92 -92 0 -7 -4 -13 -10 -13 -6 0 -10 -30 -10
-70 0 -40 4 -70 10 -70 6 0 10 -6 10 -13 0 -20 67 -86 92 -92 13 -2 39 -6 58
-7 26 -2 36 -8 38 -23 6 -37 31 -82 64 -114 46 -45 66 -38 21 7 -59 60 -62 66
-65 134 -3 59 -4 61 -15 36 -10 -23 -19 -28 -48 -28 -28 0 -38 5 -46 24 -8 16
-17 22 -29 19 -30 -8 -70 65 -70 127 0 62 40 135 70 127 12 -3 21 3 29 19 8
19 18 24 46 24 29 0 38 -5 48 -27 11 -26 12 -23 15 40 3 68 4 70 52 118 27 27
43 49 36 49 -7 0 -27 -14 -44 -31z"/>
<path d="M470 2900 c0 -5 5 -10 10 -10 6 0 10 -29 10 -67 0 -48 3 -64 10 -53
5 8 10 43 10 78 0 55 -2 62 -20 62 -11 0 -20 -4 -20 -10z"/>
<path d="M4608 2848 c6 -91 21 -108 22 -25 0 38 4 67 10 67 6 0 10 5 10 10 0
6 -10 10 -23 10 -22 0 -23 -3 -19 -62z"/>
<path d="M4827 2872 c59 -60 62 -66 65 -134 3 -59 4 -61 15 -35 10 22 19 27
48 27 28 0 38 -5 46 -24 8 -16 17 -22 29 -19 30 8 70 -65 70 -127 0 -62 -40
-135 -70 -127 -12 3 -21 -3 -29 -19 -8 -19 -18 -24 -46 -24 -29 0 -38 5 -48
28 -11 25 -12 23 -15 -36 -2 -35 -7 -69 -12 -75 -5 -7 -21 -27 -36 -44 -14
-18 -32 -33 -40 -33 -8 0 -14 -4 -14 -10 0 -19 27 -10 58 21 33 32 58 77 64
114 2 15 12 21 38 23 19 1 45 5 58 7 25 6 92 72 92 92 0 7 5 13 10 13 6 0 10
30 10 70 0 40 -4 70 -10 70 -5 0 -10 6 -10 13 0 20 -67 86 -92 92 -13 2 -39 6
-58 7 -26 2 -36 8 -38 23 -6 37 -31 82 -64 114 -46 45 -66 38 -21 -7z"/>
<path d="M2205 2880 c-10 -11 -16 -22 -13 -25 3 -3 13 6 22 20 20 30 16 32 -9
5z"/>
<path d="M2890 2896 c0 -4 9 -16 20 -28 11 -12 20 -17 20 -11 0 5 -9 18 -20
28 -11 10 -20 15 -20 11z"/>
<path d="M2533 2883 c-42 -2 -73 -8 -73 -14 0 -6 12 -8 29 -4 43 9 46 -10 5
-36 -48 -29 -94 -102 -94 -149 0 -44 59 -120 93 -120 42 0 84 -35 90 -75 9
-53 -5 -79 -49 -93 -83 -25 -210 30 -264 114 -49 77 -57 8 -11 -90 36 -73 87
-124 162 -160 79 -38 198 -39 273 -2 57 28 131 94 141 126 4 11 11 20 16 20 5
0 9 9 9 20 0 11 -4 20 -10 20 -5 0 -10 -9 -10 -20 0 -29 -19 -24 -26 7 -7 26
-7 26 -15 5 -5 -12 -6 -28 -3 -36 3 -7 -2 -16 -10 -19 -9 -4 -16 -12 -16 -20
0 -18 -47 -60 -89 -81 -55 -26 -194 -22 -257 8 -47 23 -134 104 -134 126 0 14
4 13 62 -17 29 -15 61 -30 70 -35 10 -4 39 -8 65 -8 58 0 105 26 128 71 18 33
14 50 -24 127 -16 33 -15 34 8 53 13 11 21 22 18 26 -4 3 -18 -6 -31 -20 -43
-46 -115 -28 -151 39 -17 32 -17 35 0 71 23 50 52 81 97 104 48 25 133 25 190
0 46 -19 102 -75 120 -120 10 -23 12 -24 16 -6 2 10 -1 21 -7 23 -6 2 -11 9
-11 17 0 20 -87 102 -133 123 -53 25 -84 29 -174 25z"/>
<path d="M988 2864 c-5 -4 -8 -30 -8 -58 1 -40 3 -47 11 -33 11 19 8 103 -3
91z"/>
<path d="M1987 2864 c-4 -4 -7 -14 -7 -23 0 -11 3 -12 11 -4 6 6 10 16 7 23
-2 6 -7 8 -11 4z"/>
<path d="M3120 2856 c0 -8 5 -18 10 -21 6 -3 10 1 10 9 0 8 -4 18 -10 21 -5 3
-10 -1 -10 -9z"/>
<path d="M4120 2823 c0 -26 5 -55 10 -63 7 -11 10 1 10 42 0 31 -4 60 -10 63
-6 4 -10 -12 -10 -42z"/>
<path d="M2400 2850 c0 -5 -6 -10 -14 -10 -17 0 -106 -88 -106 -105 0 -8 -5
-15 -11 -17 -6 -2 -9 -13 -7 -23 3 -16 7 -13 22 18 20 40 109 127 131 127 8 0
17 5 20 10 3 6 -3 10 -14 10 -12 0 -21 -4 -21 -10z"/>
<path d="M1960 2800 c0 -19 3 -21 12 -12 9 9 9 15 0 24 -9 9 -12 7 -12 -12z"/>
<path d="M3145 2810 c-3 -5 -1 -18 4 -27 9 -16 10 -14 11 10 0 28 -5 34 -15
17z"/>
<path d="M1340 2801 c0 -6 5 -13 10 -16 7 -4 8 -28 4 -66 -7 -64 2 -75 27 -31
11 19 14 37 9 60 -6 25 -4 35 6 39 26 10 14 23 -21 23 -19 0 -35 -4 -35 -9z"/>
<path d="M2145 2800 c-3 -5 -1 -10 4 -10 6 0 11 5 11 10 0 6 -2 10 -4 10 -3 0
-8 -4 -11 -10z"/>
<path d="M2960 2800 c0 -5 5 -10 11 -10 5 0 7 5 4 10 -3 6 -8 10 -11 10 -2 0
-4 -4 -4 -10z"/>
<path d="M1280 2780 c-8 -5 -24 -12 -35 -16 -19 -7 -18 -8 5 -12 13 -2 26 1
28 7 2 6 12 11 22 11 10 0 22 5 25 10 7 12 -24 12 -45 0z"/>
<path d="M1425 2780 c3 -5 15 -10 26 -10 10 0 19 5 19 10 0 6 -12 10 -26 10
-14 0 -23 -4 -19 -10z"/>
<path d="M3700 2780 c-8 -5 -24 -12 -35 -16 -18 -6 -18 -7 -2 -11 10 -3 24 0
31 6 25 21 44 3 36 -32 -5 -22 -2 -41 9 -59 25 -44 34 -33 27 31 -4 38 -3 62
4 66 34 21 -34 36 -70 15z"/>
<path d="M841 2688 c1 -57 4 -75 9 -58 12 37 12 140 0 140 -6 0 -10 -34 -9
-82z"/>
<path d="M1485 2760 c3 -5 17 -10 31 -10 14 0 22 4 19 10 -3 6 -17 10 -31 10
-14 0 -22 -4 -19 -10z"/>
<path d="M2120 2749 c0 -11 5 -17 10 -14 6 3 10 13 10 21 0 8 -4 14 -10 14 -5
0 -10 -9 -10 -21z"/>
<path d="M2980 2756 c0 -8 5 -18 10 -21 6 -3 10 3 10 14 0 12 -4 21 -10 21 -5
0 -10 -6 -10 -14z"/>
<path d="M3795 2760 c3 -5 13 -10 21 -10 9 0 22 -7 30 -15 16 -16 44 -21 44
-7 -1 8 -71 42 -89 42 -7 0 -9 -4 -6 -10z"/>
<path d="M4261 2708 c2 -104 17 -126 18 -25 1 52 -3 87 -9 87 -6 0 -10 -27 -9
-62z"/>
<path d="M1935 2733 c-7 -31 -10 -33 -51 -33 -24 0 -44 -4 -44 -10 0 -5 13
-10 29 -10 16 0 36 -3 44 -6 20 -7 39 29 34 64 -4 27 -4 27 -12 -5z"/>
<path d="M3170 2733 c0 -18 5 -33 10 -33 13 0 13 30 0 50 -7 11 -10 7 -10 -17z"/>
<path d="M1186 2740 c-13 -4 -16 -9 -8 -14 7 -4 19 -3 28 2 21 12 5 22 -20 12z"/>
<path d="M3600 2740 c-21 -6 -22 -8 -8 -14 9 -4 24 -3 34 2 22 12 5 21 -26 12z"/>
<path d="M1574 2729 c12 -8 25 -8 40 -1 18 9 16 11 -19 11 -33 0 -37 -1 -21
-10z"/>
<path d="M967 2713 c-10 -9 -9 -293 1 -293 4 0 14 5 22 10 12 7 12 12 2 22 -6
6 -12 34 -12 60 l0 48 144 0 145 0 37 -35 c48 -46 59 -35 12 11 l-35 36 36 33
c20 18 32 37 28 41 -4 4 -14 -2 -23 -14 -30 -44 -64 -52 -209 -52 l-135 0 0
49 c0 28 5 53 10 56 15 9 12 35 -3 35 -8 0 -17 -3 -20 -7z"/>
<path d="M1055 2710 c-4 -6 11 -10 39 -10 25 0 48 5 51 10 4 6 -11 10 -39 10
-25 0 -48 -4 -51 -10z"/>
<path d="M1655 2710 c3 -5 29 -10 56 -10 31 0 48 4 44 10 -3 6 -29 10 -56 10
-31 0 -48 -4 -44 -10z"/>
<path d="M3495 2710 c-4 -6 6 -10 24 -10 16 0 33 5 36 10 4 6 -6 10 -24 10
-16 0 -33 -4 -36 -10z"/>
<path d="M3905 2710 c3 -5 15 -10 26 -10 10 0 19 5 19 10 0 6 -12 10 -26 10
-14 0 -23 -4 -19 -10z"/>
<path d="M2100 2686 c0 -31 6 -34 13 -6 3 11 1 23 -4 26 -5 3 -9 -6 -9 -20z"/>
<path d="M3007 2703 c-3 -5 -1 -17 4 -28 7 -17 8 -17 8 8 1 27 -4 34 -12 20z"/>
<path d="M3370 2690 c-11 -7 0 -10 37 -10 28 0 55 5 58 10 8 13 -75 13 -95 0z"/>
<path d="M3975 2690 c3 -5 30 -10 58 -9 38 0 47 3 32 9 -29 12 -98 12 -90 0z"/>
<path d="M4130 2690 c-12 -7 -12 -12 -2 -22 6 -6 12 -34 12 -60 l0 -48 -144 0
-145 0 -37 35 c-48 46 -59 35 -12 -12 l36 -36 -34 -29 c-19 -17 -34 -35 -34
-40 0 -6 -11 -23 -24 -39 -20 -24 -23 -34 -16 -64 6 -28 5 -38 -6 -42 -26 -10
-14 -23 21 -23 34 0 46 12 24 25 -14 9 -1 113 18 142 9 13 30 32 48 43 28 17
49 20 169 20 l136 0 0 -45 c0 -25 -5 -54 -12 -65 -14 -22 -6 -35 17 -27 12 5
15 30 15 152 0 80 -3 145 -7 145 -5 0 -15 -5 -23 -10z"/>
<path d="M470 2637 c0 -42 -3 -49 -26 -57 -47 -18 -118 -2 -158 36 -20 19 -36
38 -36 44 0 5 -4 10 -10 10 -18 0 -10 -22 21 -57 35 -41 34 -71 -7 -114 -25
-26 -31 -49 -14 -49 6 0 10 5 10 10 0 6 16 26 36 46 36 34 38 35 108 32 l71
-3 5 -50 c8 -77 20 -29 20 78 0 51 -5 99 -10 107 -7 11 -10 2 -10 -33z"/>
<path d="M1400 2660 c0 -11 5 -20 10 -20 6 0 10 -7 10 -15 0 -8 3 -15 8 -15 4
0 13 -9 20 -21 12 -18 11 -24 -9 -45 -31 -33 -18 -41 16 -10 l28 26 214 0 214
0 -3 -47 -3 -48 -45 -6 c-41 -6 -42 -6 -10 -8 19 -1 45 -4 58 -7 22 -6 22 -5
22 102 0 66 -4 104 -9 99 -5 -6 -11 -21 -13 -35 l-3 -25 -200 -3 c-225 -3
-251 2 -280 64 -18 39 -25 43 -25 14z"/>
<path d="M3190 2574 c0 -66 4 -104 9 -98 5 5 11 20 13 34 l3 25 200 3 c227 3
250 -2 282 -67 14 -29 18 -32 21 -16 2 10 -1 21 -7 23 -6 2 -11 10 -11 18 0 8
-3 14 -8 14 -4 0 -13 9 -20 20 -11 18 -9 25 18 58 28 34 42 81 20 67 -5 -3
-10 -13 -10 -22 0 -9 -14 -29 -32 -45 l-32 -28 -213 0 -214 0 3 48 c3 47 3 47
43 53 34 5 36 6 10 8 -16 1 -40 4 -52 7 -23 6 -23 5 -23 -102z"/>
<path d="M120 2657 c0 -17 48 -67 64 -67 6 0 -1 11 -16 24 -16 13 -28 28 -28
34 0 6 -4 14 -10 17 -5 3 -10 0 -10 -8z"/>
<path d="M2864 2656 c-3 -7 -1 -29 4 -47 l10 -34 1 48 c1 47 -5 60 -15 33z"/>
<path d="M4638 2664 c-11 -11 -10 -202 1 -209 6 -3 11 14 13 37 l3 43 70 3
c68 3 71 2 108 -33 20 -19 37 -39 37 -45 0 -5 5 -10 10 -10 18 0 10 23 -17 52
-18 19 -27 39 -27 61 0 22 9 41 27 59 28 28 35 48 17 48 -5 0 -10 -5 -10 -10
0 -6 -16 -25 -36 -44 -40 -37 -111 -54 -157 -37 -21 8 -26 18 -29 51 -2 23 -6
38 -10 34z"/>
<path d="M4983 2653 c-4 -10 -18 -28 -32 -40 -14 -13 -21 -23 -15 -23 16 0 64
50 64 66 0 19 -9 17 -17 -3z"/>
<path d="M2241 2613 c1 -43 2 -45 9 -18 11 44 11 65 0 65 -5 0 -9 -21 -9 -47z"/>
<path d="M2635 2640 c-4 -6 8 -10 30 -10 22 0 34 4 30 10 -3 6 -17 10 -30 10
-13 0 -27 -4 -30 -10z"/>
<path d="M2730 2610 c14 -11 28 -20 31 -20 4 0 16 -19 27 -42 19 -39 21 -41
22 -16 0 30 -62 98 -89 98 -12 0 -9 -6 9 -20z"/>
<path d="M2083 2560 c0 -30 2 -43 4 -27 2 15 2 39 0 55 -2 15 -4 2 -4 -28z"/>
<path d="M3033 2560 c0 -25 2 -35 4 -22 2 12 2 32 0 45 -2 12 -4 2 -4 -23z"/>
<path d="M200 2560 c0 -22 33 -27 60 -10 13 9 13 11 0 20 -27 17 -60 12 -60
-10z"/>
<path d="M4860 2570 c-13 -9 -13 -11 0 -20 27 -17 60 -12 60 10 0 22 -33 27
-60 10z"/>
<path d="M2868 2510 c-7 -43 -4 -59 8 -48 3 3 4 26 2 49 l-3 44 -7 -45z"/>
<path d="M146 2504 c-25 -25 -37 -62 -16 -49 6 3 10 11 10 17 0 6 12 21 28 34
15 13 22 24 16 24 -6 0 -23 -12 -38 -26z"/>
<path d="M4953 2506 c15 -13 27 -28 27 -34 0 -6 5 -14 10 -17 6 -3 10 0 10 8
0 17 -48 67 -64 67 -6 0 1 -11 17 -24z"/>
<path d="M4266 2489 c-10 -49 -7 -139 4 -139 6 0 10 35 10 85 0 47 -2 85 -4
85 -2 0 -6 -14 -10 -31z"/>
<path d="M841 2433 c-1 -49 3 -83 9 -83 12 0 12 103 0 140 -5 17 -8 -1 -9 -57z"/>
<path d="M1400 2479 c0 -11 5 -17 10 -14 6 3 10 13 10 21 0 8 -4 14 -10 14 -5
0 -10 -9 -10 -21z"/>
<path d="M1354 2421 c4 -38 3 -62 -4 -66 -21 -13 -9 -25 25 -25 34 0 48 16 22
26 -8 3 -11 17 -9 40 4 36 -13 84 -31 84 -6 0 -7 -23 -3 -59z"/>
<path d="M2100 2434 c0 -14 4 -23 9 -20 5 3 7 15 4 26 -7 28 -13 25 -13 -6z"/>
<path d="M3007 2440 c-3 -11 -1 -23 4 -26 5 -3 9 6 9 20 0 31 -6 34 -13 6z"/>
<path d="M3180 2435 c-6 -8 -10 -29 -7 -47 l3 -33 8 33 c8 31 10 32 59 32 59
0 53 15 -10 23 -29 3 -46 1 -53 -8z"/>
<path d="M1055 2430 c28 -12 95 -12 95 0 0 6 -25 10 -57 9 -42 0 -52 -3 -38
-9z"/>
<path d="M1655 2430 c-8 -12 61 -12 90 0 15 6 6 9 -32 9 -28 1 -55 -3 -58 -9z"/>
<path d="M1170 2410 c0 -5 13 -10 29 -10 16 0 31 -3 33 -7 4 -9 74 -43 88 -43
6 0 10 5 10 10 0 6 -11 10 -25 10 -14 0 -25 4 -25 8 0 10 -71 42 -93 42 -10 0
-17 -4 -17 -10z"/>
<path d="M1560 2410 c-11 -7 -5 -10 23 -10 20 0 37 5 37 10 0 13 -40 13 -60 0z"/>
<path d="M1934 2406 c-3 -8 -1 -23 5 -33 9 -15 10 -13 11 15 0 34 -7 42 -16
18z"/>
<path d="M3365 2410 c3 -5 29 -10 56 -10 31 0 48 4 44 10 -3 6 -29 10 -56 10
-31 0 -48 -4 -44 -10z"/>
<path d="M3975 2410 c-4 -6 11 -10 39 -10 25 0 48 5 51 10 4 6 -11 10 -39 10
-25 0 -48 -4 -51 -10z"/>
<path d="M1492 2393 c-21 -8 -4 -21 23 -16 13 3 22 9 19 14 -6 10 -21 10 -42
2z"/>
<path d="M3505 2390 c-4 -6 9 -10 32 -9 30 0 34 2 18 9 -27 12 -43 12 -50 0z"/>
<path d="M3910 2390 c-12 -8 -9 -10 13 -10 16 0 26 4 22 10 -8 12 -16 12 -35
0z"/>
<path d="M2120 2371 c0 -12 5 -21 10 -21 6 0 10 6 10 14 0 8 -4 18 -10 21 -5
3 -10 -3 -10 -14z"/>
<path d="M2985 2377 c-4 -10 -5 -21 -1 -24 10 -10 18 4 13 24 -4 17 -4 17 -12
0z"/>
<path d="M1425 2360 c-3 -5 3 -10 14 -10 11 0 23 5 26 10 3 6 -3 10 -14 10
-11 0 -23 -4 -26 -10z"/>
<path d="M3585 2360 c3 -5 17 -10 31 -10 14 0 22 4 19 10 -3 6 -17 10 -31 10
-14 0 -22 -4 -19 -10z"/>
<path d="M3840 2360 c0 -5 -9 -10 -19 -10 -11 0 -23 -4 -26 -10 -10 -16 18
-12 61 10 37 18 38 19 12 20 -16 0 -28 -4 -28 -10z"/>
<path d="M4128 2350 c-12 -40 -10 -106 3 -93 5 5 9 34 7 64 -2 42 -5 48 -10
29z"/>
<path d="M490 2298 c0 -39 -4 -68 -10 -68 -5 0 -10 -4 -10 -10 0 -5 9 -10 20
-10 18 0 20 7 20 63 0 34 -5 69 -10 77 -7 11 -10 -5 -10 -52z"/>
<path d="M980 2313 c0 -28 5 -55 10 -58 13 -8 13 75 0 95 -7 11 -10 0 -10 -37z"/>
<path d="M4618 2340 c-4 -14 -9 -49 -11 -77 -4 -50 -3 -53 19 -53 13 0 24 5
24 10 0 6 -4 10 -10 10 -5 0 -10 30 -12 68 -2 46 -5 59 -10 42z"/>
<path d="M3146 2333 c-4 -9 -2 -21 4 -27 7 -7 10 -2 10 17 0 31 -5 34 -14 10z"/>
<path d="M3650 2340 c0 -5 12 -10 26 -10 14 0 23 4 19 10 -3 6 -15 10 -26 10
-10 0 -19 -4 -19 -10z"/>
<path d="M1960 2320 c0 -19 3 -21 12 -12 9 9 9 15 0 24 -9 9 -12 7 -12 -12z"/>
<path d="M2145 2320 c3 -5 8 -10 11 -10 2 0 4 5 4 10 0 6 -5 10 -11 10 -5 0
-7 -4 -4 -10z"/>
<path d="M2960 2319 c0 -5 5 -7 10 -4 6 3 10 8 10 11 0 2 -4 4 -10 4 -5 0 -10
-5 -10 -11z"/>
<path d="M1980 2276 c0 -8 5 -18 10 -21 6 -3 10 1 10 9 0 8 -4 18 -10 21 -5 3
-10 -1 -10 -9z"/>
<path d="M3127 2284 c-4 -4 -7 -14 -7 -23 0 -11 3 -12 11 -4 6 6 10 16 7 23
-2 6 -7 8 -11 4z"/>
<path d="M4241 2240 c0 -37 2 -41 9 -22 6 13 6 31 0 45 -7 18 -9 14 -9 -23z"/>
<path d="M866 2255 c-3 -8 -1 -25 4 -37 8 -20 9 -18 9 15 1 39 -3 47 -13 22z"/>
<path d="M2190 2261 c0 -5 5 -13 10 -16 6 -3 10 -2 10 4 0 5 -4 13 -10 16 -5
3 -10 2 -10 -4z"/>
<path d="M2901 2244 c-13 -13 -19 -24 -14 -24 12 0 48 38 42 44 -2 3 -15 -6
-28 -20z"/>
<path d="M1999 2218 c0 -15 -20 -40 -60 -73 -33 -27 -72 -60 -87 -72 -15 -13
-31 -23 -35 -23 -5 0 -23 -11 -41 -25 -18 -14 -38 -25 -44 -25 -7 0 -12 -4
-12 -10 0 -5 -9 -10 -19 -10 -11 0 -23 -4 -26 -10 -3 -5 0 -10 7 -10 19 0 68
23 68 33 0 4 5 7 12 7 6 0 26 11 44 25 18 14 37 25 43 25 6 0 11 3 11 8 0 4
17 18 37 32 21 14 55 42 76 63 29 29 43 36 59 31 20 -6 20 -6 2 25 -22 37 -34
40 -35 9z"/>
<path d="M3100 2231 c0 -10 -19 -34 -82 -106 -43 -48 -45 -55 -20 -55 10 0 84
-67 165 -148 l147 -149 1 -49 c0 -56 12 -38 22 34 5 38 3 44 -21 56 -29 15
-275 270 -280 290 -3 13 41 66 55 66 6 0 30 -18 54 -41 52 -47 193 -149 207
-149 6 0 12 -4 14 -8 6 -14 116 -64 130 -59 9 3 7 7 -7 12 -26 9 -69 30 -120
58 -44 24 -46 26 -91 62 -18 14 -35 25 -38 25 -14 0 -136 117 -136 131 0 4 5
11 10 14 6 3 10 10 10 16 0 5 -4 9 -10 9 -5 0 -10 -4 -10 -9z"/>
<path d="M1000 2191 c0 -17 5 -33 10 -36 6 -4 10 8 10 29 0 20 -4 36 -10 36
-5 0 -10 -13 -10 -29z"/>
<path d="M4100 2184 c0 -21 4 -33 10 -29 6 3 10 19 10 36 0 16 -4 29 -10 29
-5 0 -10 -16 -10 -36z"/>
<path d="M340 2200 c0 -5 24 -10 54 -10 30 0 58 5 61 10 4 6 -17 10 -54 10
-34 0 -61 -4 -61 -10z"/>
<path d="M2245 2200 c3 -5 11 -10 16 -10 6 0 7 5 4 10 -3 6 -11 10 -16 10 -6
0 -7 -4 -4 -10z"/>
<path d="M2855 2200 c-3 -5 -2 -10 4 -10 5 0 13 5 16 10 3 6 2 10 -4 10 -5 0
-13 -4 -16 -10z"/>
<path d="M4665 2200 c3 -5 31 -10 61 -10 30 0 54 5 54 10 0 6 -27 10 -61 10
-37 0 -58 -4 -54 -10z"/>
<path d="M513 2174 c-3 -8 -1 -29 5 -47 10 -32 10 -31 11 16 1 48 -5 60 -16
31z"/>
<path d="M4590 2148 c0 -31 3 -39 10 -28 13 20 13 57 0 65 -6 4 -10 -11 -10
-37z"/>
<path d="M2050 2160 c0 -5 5 -10 10 -10 6 0 10 5 10 10 0 6 -4 10 -10 10 -5 0
-10 -4 -10 -10z"/>
<path d="M892 2135 c0 -16 2 -22 5 -12 2 9 2 23 0 30 -3 6 -5 -1 -5 -18z"/>
<path d="M2315 2150 c3 -5 8 -10 11 -10 2 0 4 5 4 10 0 6 -5 10 -11 10 -5 0
-7 -4 -4 -10z"/>
<path d="M2790 2149 c0 -5 5 -7 10 -4 6 3 10 8 10 11 0 2 -4 4 -10 4 -5 0 -10
-5 -10 -11z"/>
<path d="M4222 2135 c0 -16 2 -22 5 -12 2 9 2 23 0 30 -3 6 -5 -1 -5 -18z"/>
<path d="M2070 2122 c0 -10 -67 -84 -148 -165 -145 -144 -149 -147 -192 -147
-50 0 -47 -10 7 -19 28 -5 39 -12 44 -31 7 -25 7 -25 8 3 1 22 32 60 147 177
144 147 177 172 189 142 3 -8 8 -12 12 -8 7 7 -46 66 -59 66 -4 0 -8 -8 -8
-18z"/>
<path d="M2350 2130 c0 -5 7 -10 15 -10 8 0 15 5 15 10 0 6 -7 10 -15 10 -8 0
-15 -4 -15 -10z"/>
<path d="M2740 2130 c0 -5 7 -10 15 -10 8 0 15 5 15 10 0 6 -7 10 -15 10 -8 0
-15 -4 -15 -10z"/>
<path d="M1030 2103 c0 -18 5 -33 10 -33 13 0 13 30 0 50 -7 11 -10 7 -10 -17z"/>
<path d="M4075 2109 c-4 -12 -2 -26 4 -32 8 -8 11 -2 11 21 0 37 -6 41 -15 11z"/>
<path d="M2423 2103 c9 -2 23 -2 30 0 6 3 -1 5 -18 5 -16 0 -22 -2 -12 -5z"/>
<path d="M2673 2103 c9 -2 23 -2 30 0 6 3 -1 5 -18 5 -16 0 -22 -2 -12 -5z"/>
<path d="M2538 2083 c12 -2 32 -2 45 0 12 2 2 4 -23 4 -25 0 -35 -2 -22 -4z"/>
<path d="M540 2048 c0 -21 5 -38 10 -38 13 0 13 40 0 60 -7 11 -10 5 -10 -22z"/>
<path d="M4566 2064 c-9 -24 -7 -54 4 -54 6 0 10 16 10 35 0 38 -4 44 -14 19z"/>
<path d="M910 2050 c0 -11 5 -20 10 -20 6 0 10 9 10 20 0 11 -4 20 -10 20 -5
0 -10 -9 -10 -20z"/>
<path d="M2150 2060 c0 -5 5 -10 10 -10 23 0 7 -29 -50 -90 -33 -36 -60 -69
-60 -73 0 -4 -11 -20 -25 -35 -14 -15 -25 -32 -25 -39 0 -7 -4 -13 -10 -13 -5
0 -10 -5 -10 -10 0 -6 -11 -28 -25 -50 -27 -42 -31 -60 -15 -60 6 0 10 9 10
20 0 11 4 20 10 20 5 0 12 11 16 25 3 14 10 25 15 25 5 0 9 5 9 11 0 26 174
239 195 239 3 0 15 -5 26 -10 13 -7 19 -7 19 0 0 5 -4 10 -9 10 -6 0 -22 11
-37 25 -28 26 -44 32 -44 15z"/>
<path d="M2950 2060 c0 -5 5 -10 10 -10 6 0 10 5 10 10 0 6 -4 10 -10 10 -5 0
-10 -4 -10 -10z"/>
<path d="M4190 2050 c0 -11 5 -20 10 -20 6 0 10 9 10 20 0 11 -4 20 -10 20 -5
0 -10 -9 -10 -20z"/>
<path d="M1050 2036 c0 -14 5 -28 10 -31 6 -3 10 5 10 19 0 14 -4 28 -10 31
-6 3 -10 -5 -10 -19z"/>
<path d="M4058 2054 c-5 -4 -8 -19 -8 -33 0 -18 3 -22 11 -14 6 6 9 21 7 33
-1 12 -6 18 -10 14z"/>
<path d="M2898 2026 c-24 -17 -23 -26 2 -26 22 0 60 -35 106 -97 16 -21 31
-40 34 -43 17 -17 60 -80 60 -89 0 -6 3 -11 8 -11 4 0 16 -19 26 -42 15 -32
21 -38 24 -24 2 10 0 21 -5 25 -4 3 -15 20 -23 36 -8 17 -21 36 -27 43 -7 7
-13 17 -13 21 0 4 -8 16 -17 27 -10 10 -31 37 -47 59 -16 22 -45 55 -63 74
-19 18 -32 39 -29 47 7 18 -13 18 -36 0z"/>
<path d="M936 1992 c-2 -4 -1 -14 5 -22 7 -12 9 -10 9 8 0 23 -5 28 -14 14z"/>
<path d="M2255 1990 c3 -5 13 -10 21 -10 8 0 12 5 9 10 -3 6 -13 10 -21 10 -8
0 -12 -4 -9 -10z"/>
<path d="M2835 1990 c-3 -5 1 -10 9 -10 8 0 18 5 21 10 3 6 -1 10 -9 10 -8 0
-18 -4 -21 -10z"/>
<path d="M4170 1978 c0 -19 2 -20 10 -8 13 19 13 30 0 30 -5 0 -10 -10 -10
-22z"/>
<path d="M560 1966 c0 -14 5 -28 10 -31 6 -3 10 5 10 19 0 14 -4 28 -10 31 -6
3 -10 -5 -10 -19z"/>
<path d="M1070 1971 c0 -11 5 -23 10 -26 6 -4 10 5 10 19 0 14 -4 26 -10 26
-5 0 -10 -9 -10 -19z"/>
<path d="M4030 1964 c0 -14 4 -23 10 -19 6 3 10 15 10 26 0 10 -4 19 -10 19
-5 0 -10 -12 -10 -26z"/>
<path d="M4540 1959 c0 -17 4 -28 10 -24 6 3 10 17 10 31 0 13 -4 24 -10 24
-5 0 -10 -14 -10 -31z"/>
<path d="M2305 1970 c-4 -6 3 -10 14 -10 25 0 27 6 6 13 -8 4 -17 2 -20 -3z"/>
<path d="M2790 1970 c-12 -8 -10 -10 8 -10 13 0 20 4 17 10 -7 12 -6 12 -25 0z"/>
<path d="M1625 1940 c-3 -5 -17 -10 -31 -10 -13 0 -24 -4 -24 -10 0 -5 -6 -10
-12 -10 -15 -1 -52 -69 -43 -78 6 -6 18 8 29 33 3 6 14 -1 26 -15 12 -14 30
-35 41 -48 14 -16 19 -37 19 -80 l0 -57 -98 -98 c-53 -53 -104 -97 -112 -97
-15 0 -38 28 -52 63 -5 12 3 29 25 55 18 20 35 39 40 40 4 2 7 8 7 13 0 5 11
27 25 49 27 42 31 60 15 60 -5 0 -10 -7 -10 -16 0 -8 -11 -30 -25 -48 -14 -18
-25 -37 -25 -42 -1 -5 -19 -27 -40 -49 l-40 -40 -30 32 c-16 18 -30 36 -30 40
0 5 -10 19 -23 33 -13 14 -26 32 -30 40 -4 8 -18 33 -31 55 -14 22 -35 60 -48
85 -16 34 -23 40 -26 26 -2 -10 0 -21 5 -25 5 -3 17 -22 26 -41 20 -40 39 -73
48 -80 3 -3 8 -12 11 -20 11 -29 141 -196 202 -258 33 -35 84 -81 111 -102 28
-21 60 -47 72 -59 12 -12 25 -21 28 -21 4 0 21 -11 39 -25 18 -14 38 -25 44
-25 7 0 12 -4 12 -10 0 -5 5 -10 11 -10 6 0 25 -11 43 -25 18 -14 40 -25 49
-25 8 0 17 -5 19 -11 2 -6 13 -9 23 -7 16 3 12 8 -20 23 -22 10 -64 34 -93 52
-29 18 -55 33 -58 33 -3 0 -17 11 -32 25 -15 14 -31 25 -37 25 -5 1 -28 19
-50 40 l-40 40 32 30 c18 16 35 30 38 30 4 0 13 6 20 13 35 31 45 37 60 37 8
0 15 5 15 10 0 6 9 10 19 10 11 0 23 5 26 10 17 27 -74 -9 -116 -46 -8 -8 -19
-14 -23 -14 -4 0 -24 -16 -44 -35 -36 -33 -37 -34 -62 -18 -36 24 -50 39 -50
56 0 8 45 57 99 110 100 97 100 97 150 97 64 0 67 18 4 22 l-48 3 -3 50 c-2
28 -7 54 -13 60 -15 15 -11 25 14 34 21 9 21 9 2 16 -29 11 -85 54 -85 66 0 5
6 9 13 9 7 0 31 9 53 20 30 15 34 19 17 20 -12 0 -25 -4 -28 -10z"/>
<path d="M2370 1940 c8 -5 23 -10 33 -10 14 0 17 -9 17 -47 0 -54 14 -48 23 9
6 43 -10 58 -60 58 -22 0 -25 -2 -13 -10z"/>
<path d="M2708 1938 c8 -8 17 -8 34 0 22 10 21 11 -11 11 -27 1 -32 -2 -23
-11z"/>
<path d="M962 1920 c0 -14 2 -19 5 -12 2 6 2 18 0 25 -3 6 -5 1 -5 -13z"/>
<path d="M4152 1920 c0 -14 2 -19 5 -12 2 6 2 18 0 25 -3 6 -5 1 -5 -13z"/>
<path d="M1097 1911 c3 -12 10 -21 15 -21 13 0 6 32 -9 37 -7 3 -9 -3 -6 -16z"/>
<path d="M2476 1921 c5 -5 20 -11 34 -13 l25 -3 3 -200 c3 -227 -2 -250 -67
-282 -29 -14 -32 -18 -16 -21 10 -2 21 1 23 7 2 6 10 11 18 11 8 0 14 3 14 8
0 4 9 13 21 20 18 12 24 11 43 -7 12 -12 27 -21 33 -21 6 0 13 -5 15 -11 2 -6
13 -9 23 -7 18 4 16 6 -8 16 -15 7 -39 24 -52 38 -25 27 -25 27 -25 241 l0
214 48 -3 47 -3 6 -45 c6 -41 6 -42 8 -10 1 19 4 45 7 58 6 22 5 22 -102 22
-66 0 -104 -4 -98 -9z"/>
<path d="M4007 1923 c-10 -9 -8 -33 2 -33 5 0 11 9 14 20 5 20 -3 26 -16 13z"/>
<path d="M4520 1888 c0 -25 3 -29 10 -18 13 20 13 50 0 50 -5 0 -10 -15 -10
-32z"/>
<path d="M580 1898 c0 -7 5 -20 10 -28 8 -12 10 -9 10 13 0 15 -4 27 -10 27
-5 0 -10 -6 -10 -12z"/>
<path d="M3510 1901 c0 -6 5 -13 10 -16 17 -11 11 -21 -25 -41 -19 -10 -35
-22 -35 -26 0 -5 -11 -8 -25 -8 -14 0 -25 -5 -25 -11 0 -7 11 -8 30 -4 27 6
30 4 30 -17 1 -23 1 -23 21 4 52 71 56 73 73 59 24 -20 21 10 -5 43 -20 25
-49 35 -49 17z"/>
<path d="M980 1865 c0 -8 5 -15 10 -15 6 0 10 7 10 15 0 8 -4 15 -10 15 -5 0
-10 -7 -10 -15z"/>
<path d="M3979 1863 c0 -10 -9 -31 -20 -48 -11 -16 -22 -38 -25 -47 -4 -10
-10 -18 -15 -18 -5 0 -9 -5 -9 -11 0 -6 -16 -33 -35 -59 -19 -26 -35 -52 -35
-56 -1 -5 -18 -27 -40 -48 -45 -46 -50 -44 -100 35 -18 27 -36 49 -41 49 -5 0
-9 9 -9 20 0 11 -4 20 -10 20 -5 0 -10 -5 -10 -11 0 -13 61 -100 97 -140 l23
-25 -27 -37 c-16 -20 -35 -36 -43 -37 -18 0 -181 163 -201 200 -7 14 -12 37
-10 52 1 15 -1 33 -6 40 -5 8 -10 -6 -13 -37 l-5 -50 -50 -3 c-27 -2 -54 -7
-59 -13 -16 -15 -26 -11 -35 14 -9 21 -9 21 -16 2 -11 -29 -54 -85 -66 -85 -5
0 -9 9 -9 19 0 11 -4 23 -10 26 -17 10 -11 -28 8 -51 25 -31 69 -57 83 -48 8
4 2 11 -17 18 l-28 12 20 20 c61 58 73 64 132 64 l57 0 98 -98 c53 -53 97
-103 97 -111 0 -18 -41 -50 -64 -51 -18 0 -87 45 -94 62 -2 4 -8 8 -12 8 -5 0
-26 11 -46 25 -38 26 -64 32 -64 15 0 -5 11 -10 24 -10 13 0 26 -7 30 -15 3
-8 11 -15 19 -15 7 0 22 -8 33 -18 10 -10 34 -28 52 -40 17 -13 32 -29 32 -36
0 -13 -54 -66 -68 -66 -4 0 -18 -10 -32 -23 -14 -13 -32 -26 -40 -30 -8 -4
-33 -18 -55 -31 -22 -14 -60 -35 -85 -48 -35 -17 -41 -23 -25 -26 10 -2 21 1
23 7 2 6 12 11 23 11 10 0 19 4 19 8 0 5 18 17 40 28 22 10 40 22 40 27 0 4 6
7 13 7 19 0 194 134 265 204 35 33 83 85 105 115 98 127 126 167 127 179 0 6
4 12 9 12 5 0 11 8 14 18 3 9 20 41 36 70 17 29 31 57 31 62 0 18 -20 10 -21
-7z"/>
<path d="M4120 1865 c0 -8 5 -15 10 -15 6 0 10 7 10 15 0 8 -4 15 -10 15 -5 0
-10 -7 -10 -15z"/>
<path d="M610 1828 c0 -16 5 -28 10 -28 13 0 13 20 0 40 -8 12 -10 9 -10 -12z"/>
<path d="M4497 1843 c-11 -10 -8 -43 3 -43 6 0 10 11 10 25 0 26 -2 29 -13 18z"/>
<path d="M1005 1821 c-3 -5 -1 -12 5 -16 5 -3 10 1 10 9 0 18 -6 21 -15 7z"/>
<path d="M4100 1814 c0 -8 5 -12 10 -9 6 3 10 10 10 16 0 5 -4 9 -10 9 -5 0
-10 -7 -10 -16z"/>
<path d="M3591 1791 c-1 -24 2 -32 9 -25 7 7 7 19 1 35 -9 23 -10 22 -10 -10z"/>
<path d="M1498 1804 c-5 -4 -8 -16 -8 -28 0 -14 3 -17 11 -9 6 6 9 19 7 28 -1
9 -6 13 -10 9z"/>
<path d="M630 1771 c0 -11 5 -23 10 -26 6 -3 10 3 10 14 0 11 -4 23 -10 26 -5
3 -10 -3 -10 -14z"/>
<path d="M4478 1784 c-5 -4 -8 -16 -8 -28 0 -14 3 -17 11 -9 6 6 9 19 7 28 -1
9 -6 13 -10 9z"/>
<path d="M1031 1764 c0 -11 3 -14 6 -6 3 7 2 16 -1 19 -3 4 -6 -2 -5 -13z"/>
<path d="M4081 1764 c0 -11 3 -14 6 -6 3 7 2 16 -1 19 -3 4 -6 -2 -5 -13z"/>
<path d="M2408 1754 c-5 -4 -8 -30 -8 -58 1 -40 3 -47 11 -33 11 19 8 103 -3
91z"/>
<path d="M2681 1713 c-1 -28 4 -55 9 -58 12 -8 12 61 0 90 -6 15 -9 6 -9 -32z"/>
<path d="M3610 1731 c0 -12 5 -21 10 -21 6 0 10 6 10 14 0 8 -4 18 -10 21 -5
3 -10 -3 -10 -14z"/>
<path d="M1050 1726 c0 -9 5 -16 10 -16 6 0 10 4 10 9 0 6 -4 13 -10 16 -5 3
-10 -1 -10 -9z"/>
<path d="M4057 1733 c-4 -3 -7 -11 -7 -17 0 -6 5 -5 12 2 6 6 9 14 7 17 -3 3
-9 2 -12 -2z"/>
<path d="M650 1716 c0 -8 5 -18 10 -21 6 -3 10 3 10 14 0 12 -4 21 -10 21 -5
0 -10 -6 -10 -14z"/>
<path d="M4450 1709 c0 -11 5 -17 10 -14 6 3 10 13 10 21 0 8 -4 14 -10 14 -5
0 -10 -9 -10 -21z"/>
<path d="M1794 1685 c5 -20 2 -27 -14 -33 -19 -7 -17 -11 24 -41 26 -18 46
-35 46 -38 0 -3 -8 -12 -17 -19 -17 -12 -17 -13 3 -14 25 0 74 42 74 65 0 20
-10 19 -26 -2 -7 -10 -14 -16 -16 -13 -46 61 -58 82 -58 99 0 12 -5 21 -11 21
-7 0 -9 -10 -5 -25z"/>
<path d="M1070 1691 c0 -6 5 -13 10 -16 6 -3 10 1 10 9 0 9 -4 16 -10 16 -5 0
-10 -4 -10 -9z"/>
<path d="M4030 1684 c0 -8 5 -12 10 -9 6 3 10 10 10 16 0 5 -4 9 -10 9 -5 0
-10 -7 -10 -16z"/>
<path d="M680 1661 c0 -12 5 -21 10 -21 6 0 10 6 10 14 0 8 -4 18 -10 21 -5 3
-10 -3 -10 -14z"/>
<path d="M4417 1651 c-19 -39 -21 -51 -7 -51 6 0 10 9 10 19 0 11 5 21 11 23
6 2 10 13 7 23 -3 17 -7 14 -21 -14z"/>
<path d="M1910 1650 c0 -11 5 -20 10 -20 6 0 10 9 10 20 0 11 -4 20 -10 20 -5
0 -10 -9 -10 -20z"/>
<path d="M3170 1651 c0 -12 5 -21 10 -21 6 0 10 6 10 14 0 8 -4 18 -10 21 -5
3 -10 -3 -10 -14z"/>
<path d="M1101 1644 c0 -11 3 -14 6 -6 3 7 2 16 -1 19 -3 4 -6 -2 -5 -13z"/>
<path d="M4011 1644 c0 -11 3 -14 6 -6 3 7 2 16 -1 19 -3 4 -6 -2 -5 -13z"/>
<path d="M701 1618 c0 -7 9 -26 20 -43 11 -16 22 -38 25 -47 4 -10 10 -18 15
-18 5 0 9 -9 9 -20 0 -11 5 -20 10 -20 6 0 10 -6 10 -14 0 -8 4 -16 8 -18 17
-7 52 -77 46 -92 -4 -11 -1 -16 13 -16 19 0 28 -8 78 -75 16 -22 47 -60 70
-83 22 -24 43 -50 48 -57 12 -22 -9 -61 -49 -91 -31 -24 -45 -28 -104 -28 -65
0 -68 1 -113 44 -30 27 -47 52 -47 67 0 12 -4 23 -10 23 -16 0 -12 -26 10 -63
l20 -34 -21 -27 c-26 -33 -18 -45 11 -16 21 21 51 20 75 -1 5 -5 32 -9 60 -9
29 0 55 -3 58 -7 9 -9 -22 -43 -40 -43 -16 0 -17 -12 -1 -28 16 -16 28 -15 28
1 0 8 9 22 20 32 20 18 21 18 27 -4 4 -17 8 -19 14 -9 5 7 9 22 9 32 0 27 47
85 77 97 29 11 38 7 95 -46 23 -23 61 -54 83 -70 67 -50 75 -59 75 -78 0 -14
5 -17 16 -13 9 4 28 -1 41 -9 13 -9 29 -15 34 -13 6 2 -18 23 -53 48 -35 24
-64 47 -66 52 -2 4 -8 8 -13 8 -5 0 -21 10 -36 23 -55 44 -270 263 -299 302
-16 22 -31 42 -34 45 -16 15 -110 151 -110 160 0 5 -3 10 -7 10 -5 0 -17 18
-27 40 -11 22 -23 40 -28 40 -4 0 -8 9 -8 20 0 11 -4 20 -10 20 -5 0 -10 9
-10 20 0 11 -4 20 -10 20 -5 0 -10 -6 -9 -12z"/>
<path d="M1120 1616 c0 -9 5 -16 10 -16 6 0 10 4 10 9 0 6 -4 13 -10 16 -5 3
-10 -1 -10 -9z"/>
<path d="M2381 1595 c0 -35 2 -37 11 -19 7 15 7 28 -1 40 -9 16 -10 12 -10
-21z"/>
<path d="M3986 1621 c-4 -7 -5 -15 -2 -18 9 -9 19 4 14 18 -4 11 -6 11 -12 0z"/>
<path d="M2700 1598 c0 -13 5 -30 10 -38 7 -11 10 -5 10 23 0 20 -4 37 -10 37
-5 0 -10 -10 -10 -22z"/>
<path d="M3967 1583 c-4 -3 -7 -11 -7 -17 0 -6 5 -5 12 2 6 6 9 14 7 17 -3 3
-9 2 -12 -2z"/>
<path d="M4377 1573 c-8 -25 -50 -97 -59 -101 -5 -2 -8 -8 -8 -13 0 -8 -95
-145 -110 -159 -3 -3 -18 -23 -34 -45 -38 -52 -249 -263 -301 -301 -22 -16
-42 -31 -45 -34 -15 -16 -151 -110 -160 -110 -5 0 -10 -3 -10 -7 0 -5 -19 -17
-42 -28 -30 -14 -36 -21 -24 -23 10 -2 21 0 25 5 3 4 20 15 36 23 33 16 97 60
106 74 4 4 10 3 13 -3 11 -17 26 -13 26 7 0 18 8 27 75 77 22 16 56 45 75 63
57 55 74 64 103 53 30 -12 77 -70 77 -97 0 -10 4 -25 9 -32 6 -10 10 -8 14 9
5 19 8 21 23 9 9 -8 20 -25 25 -39 9 -23 10 -23 24 -5 18 24 19 34 2 34 -18 0
-49 34 -40 43 3 4 29 7 58 7 28 0 55 4 60 9 24 21 54 22 75 1 29 -29 37 -17
11 16 l-21 27 21 37 c14 25 19 45 14 57 -6 15 -9 12 -16 -16 -4 -21 -24 -51
-49 -75 -41 -39 -45 -40 -110 -40 -59 0 -73 4 -104 28 -69 52 -67 80 6 156 18
19 47 53 63 75 50 67 59 75 77 75 20 0 24 15 7 26 -7 4 -7 9 -2 13 13 8 83
119 83 131 0 6 5 10 10 10 6 0 10 6 10 14 0 7 7 19 15 26 16 14 20 40 6 40 -5
0 -11 -8 -14 -17z"/>
<path d="M1145 1570 c3 -5 8 -10 11 -10 2 0 4 5 4 10 0 6 -5 10 -11 10 -5 0
-7 -4 -4 -10z"/>
<path d="M1171 1544 c0 -11 3 -14 6 -6 3 7 2 16 -1 19 -3 4 -6 -2 -5 -13z"/>
<path d="M3941 1544 c0 -11 3 -14 6 -6 3 7 2 16 -1 19 -3 4 -6 -2 -5 -13z"/>
<path d="M2358 1534 c-5 -4 -8 -19 -8 -33 0 -18 3 -22 11 -14 6 6 9 21 7 33
-1 12 -6 18 -10 14z"/>
<path d="M2726 1528 c-4 -9 -3 -24 2 -34 12 -22 21 -5 12 26 -6 21 -8 22 -14
8z"/>
<path d="M1190 1521 c0 -6 4 -13 10 -16 6 -3 7 1 4 9 -7 18 -14 21 -14 7z"/>
<path d="M1760 1520 c0 -13 20 -13 40 0 12 8 9 10 -12 10 -16 0 -28 -4 -28
-10z"/>
<path d="M3916 1513 c-6 -14 -5 -15 5 -6 7 7 10 15 7 18 -3 3 -9 -2 -12 -12z"/>
<path d="M3315 1500 c3 -5 15 -10 26 -10 10 0 19 5 19 10 0 6 -12 10 -26 10
-14 0 -23 -4 -19 -10z"/>
<path d="M1215 1480 c3 -5 8 -10 11 -10 2 0 4 5 4 10 0 6 -5 10 -11 10 -5 0
-7 -4 -4 -10z"/>
<path d="M3880 1470 c-9 -10 -30 -35 -48 -54 -18 -20 -32 -39 -32 -43 0 -4 17
10 38 33 64 69 75 84 66 84 -5 0 -16 -9 -24 -20z"/>
<path d="M2330 1444 c0 -14 4 -23 10 -19 6 3 10 15 10 26 0 10 -4 19 -10 19
-5 0 -10 -12 -10 -26z"/>
<path d="M2750 1451 c0 -11 5 -23 10 -26 6 -3 10 3 10 14 0 11 -4 23 -10 26
-5 3 -10 -3 -10 -14z"/>
<path d="M1240 1455 c0 -8 113 -125 121 -125 4 0 -12 21 -37 46 -24 26 -44 49
-44 53 0 3 -9 12 -20 19 -11 7 -20 10 -20 7z"/>
<path d="M2310 1375 c0 -34 12 -46 25 -24 10 16 115 0 148 -23 49 -35 57 -64
57 -213 l0 -135 -48 0 c-26 0 -53 5 -60 12 -8 8 -15 8 -27 -2 -9 -7 -12 -17
-7 -22 9 -9 301 -13 310 -3 3 3 -3 12 -14 19 -12 9 -23 11 -29 5 -5 -5 -31 -9
-57 -9 l-48 0 0 144 0 145 35 37 c45 47 36 59 -10 14 l-35 -34 -33 32 c-18 18
-38 32 -45 32 -7 0 -12 4 -12 8 0 19 -56 39 -88 32 -25 -6 -35 -4 -39 6 -10
26 -23 14 -23 -21z"/>
<path d="M2764 1397 c-3 -8 -17 -11 -40 -9 -36 4 -84 -13 -84 -31 0 -6 23 -7
59 -3 38 4 62 3 66 -4 13 -21 25 -9 25 25 0 34 -16 48 -26 22z"/>
<path d="M3749 1331 c-19 -20 -55 -53 -79 -74 -24 -20 -41 -39 -38 -42 2 -3
40 29 84 69 43 41 77 76 74 78 -3 2 -21 -12 -41 -31z"/>
<path d="M2330 1315 c0 -8 4 -23 9 -33 5 -9 13 -26 17 -37 7 -19 8 -18 12 5 2
13 -1 26 -7 28 -6 2 -11 12 -11 22 0 10 -4 22 -10 25 -5 3 -10 -1 -10 -10z"/>
<path d="M2750 1305 c0 -14 -4 -25 -9 -25 -12 0 -23 -29 -15 -42 4 -5 15 9 25
32 22 48 23 60 9 60 -5 0 -10 -11 -10 -25z"/>
<path d="M773 1295 c-13 -13 -23 -30 -23 -37 0 -7 10 -1 23 13 12 14 31 31 42
37 l20 11 -20 0 c-11 0 -30 -11 -42 -24z"/>
<path d="M1425 1265 c32 -30 61 -52 63 -50 7 7 -102 105 -116 105 -4 0 20 -25
53 -55z"/>
<path d="M4305 1308 c11 -6 30 -23 42 -37 13 -14 23 -20 23 -13 0 19 -46 62
-67 62 -16 -1 -16 -2 2 -12z"/>
<path d="M727 1233 c-11 -10 -8 -43 3 -43 6 0 10 11 10 25 0 26 -2 29 -13 18z"/>
<path d="M4380 1216 c0 -14 5 -26 10 -26 6 0 10 9 10 19 0 11 -4 23 -10 26 -6
4 -10 -5 -10 -19z"/>
<path d="M2707 1223 c-11 -10 -8 -53 3 -53 6 0 10 14 10 30 0 31 -2 35 -13 23z"/>
<path d="M2378 1214 c-9 -14 7 -50 16 -36 4 7 3 19 -2 28 -5 9 -12 13 -14 8z"/>
<path d="M1500 1200 c0 -5 5 -10 10 -10 6 0 23 -11 38 -25 15 -14 31 -25 37
-25 11 0 -66 70 -77 70 -5 0 -8 -4 -8 -10z"/>
<path d="M3578 1185 c-15 -14 -32 -25 -38 -25 -5 0 -10 -4 -10 -10 0 -5 3 -10
8 -10 11 0 88 70 77 70 -6 0 -22 -11 -37 -25z"/>
<path d="M2400 1106 c0 -25 5 -48 10 -51 6 -4 10 11 10 39 0 25 -4 48 -10 51
-6 4 -10 -11 -10 -39z"/>
<path d="M2681 1093 c0 -42 3 -52 9 -38 12 28 12 95 0 95 -6 0 -10 -25 -9 -57z"/>
<path d="M1600 1130 c0 -5 7 -10 15 -10 8 0 15 -4 15 -10 0 -5 7 -10 16 -10
12 0 10 5 -9 20 -28 22 -37 25 -37 10z"/>
<path d="M3481 1120 c-18 -15 -19 -20 -7 -20 9 0 16 5 16 10 0 6 7 10 15 10 8
0 15 5 15 10 0 15 -12 12 -39 -10z"/>
<path d="M1890 1111 c0 -5 9 -11 20 -14 24 -6 27 8 4 17 -21 8 -24 8 -24 -3z"/>
<path d="M3203 1113 c-21 -8 -15 -22 7 -16 11 3 20 9 20 14 0 10 -8 10 -27 2z"/>
<path d="M1675 1080 c3 -5 10 -10 16 -10 5 0 9 5 9 10 0 6 -7 10 -16 10 -8 0
-12 -4 -9 -10z"/>
<path d="M1945 1080 c3 -5 15 -10 26 -10 10 0 19 5 19 10 0 6 -12 10 -26 10
-14 0 -23 -4 -19 -10z"/>
<path d="M3130 1080 c0 -5 9 -10 19 -10 11 0 23 5 26 10 4 6 -5 10 -19 10 -14
0 -26 -4 -26 -10z"/>
<path d="M3420 1080 c0 -5 4 -10 9 -10 6 0 13 5 16 10 3 6 -1 10 -9 10 -9 0
-16 -4 -16 -10z"/>
<path d="M1710 1060 c0 -5 7 -10 16 -10 8 0 12 5 9 10 -3 6 -10 10 -16 10 -5
0 -9 -4 -9 -10z"/>
<path d="M2000 1060 c0 -5 11 -10 25 -10 14 0 25 5 25 10 0 6 -11 10 -25 10
-14 0 -25 -4 -25 -10z"/>
<path d="M3065 1060 c-4 -6 7 -10 24 -10 17 0 31 5 31 10 0 6 -11 10 -24 10
-14 0 -28 -4 -31 -10z"/>
<path d="M3380 1060 c0 -5 7 -10 15 -10 8 0 15 5 15 10 0 6 -7 10 -15 10 -8 0
-15 -4 -15 -10z"/>
<path d="M2070 1040 c0 -5 15 -10 33 -10 24 0 28 3 17 10 -20 13 -50 13 -50 0z"/>
<path d="M3000 1040 c-11 -7 -7 -10 18 -10 17 0 32 5 32 10 0 13 -30 13 -50 0z"/>
<path d="M1758 1033 c6 -2 18 -2 25 0 6 3 1 5 -13 5 -14 0 -19 -2 -12 -5z"/>
<path d="M3338 1033 c6 -2 18 -2 25 0 6 3 1 5 -13 5 -14 0 -19 -2 -12 -5z"/>
<path d="M1805 1010 c3 -5 10 -10 16 -10 5 0 9 5 9 10 0 6 -7 10 -16 10 -8 0
-12 -4 -9 -10z"/>
<path d="M2155 1010 c3 -5 19 -10 36 -10 16 0 29 5 29 10 0 6 -16 10 -36 10
-21 0 -33 -4 -29 -10z"/>
<path d="M2900 1010 c0 -5 13 -10 29 -10 17 0 33 5 36 10 4 6 -8 10 -29 10
-20 0 -36 -4 -36 -10z"/>
<path d="M3290 1010 c0 -5 4 -10 9 -10 6 0 13 5 16 10 3 6 -1 10 -9 10 -9 0
-16 -4 -16 -10z"/>
<path d="M1850 990 c0 -5 7 -10 15 -10 8 0 15 5 15 10 0 6 -7 10 -15 10 -8 0
-15 -4 -15 -10z"/>
<path d="M2250 990 c0 -6 26 -10 58 -10 40 0 53 3 42 10 -20 13 -100 13 -100
0z"/>
<path d="M2770 990 c-11 -7 2 -10 43 -10 31 0 57 4 57 10 0 13 -80 13 -100 0z"/>
<path d="M3235 990 c-3 -5 3 -10 14 -10 12 0 21 5 21 10 0 6 -6 10 -14 10 -8
0 -18 -4 -21 -10z"/>
<path d="M1905 970 c-4 -6 3 -10 14 -10 25 0 27 6 6 13 -8 4 -17 2 -20 -3z"/>
<path d="M3190 970 c-12 -8 -10 -10 8 -10 13 0 20 4 17 10 -7 12 -6 12 -25 0z"/>
<path d="M705 952 c-10 -11 -5 -133 8 -154 38 -67 90 -98 167 -98 59 0 80 7
129 42 23 17 25 17 61 -3 26 -15 44 -19 57 -13 15 7 13 9 -13 12 -43 4 -108
74 -119 127 -8 37 -9 38 -13 12 -2 -16 4 -44 12 -62 19 -39 14 -58 -21 -81
-25 -16 -27 -16 -44 7 l-19 24 0 -22 c0 -21 -5 -23 -50 -23 -46 0 -54 4 -95
45 -41 41 -45 49 -45 94 0 42 3 50 20 53 18 3 18 4 -5 24 -13 12 -27 19 -30
16z"/>
<path d="M4381 933 c-24 -23 -24 -23 -3 -23 20 0 22 -5 22 -50 0 -46 -4 -54
-45 -95 -41 -41 -49 -45 -95 -45 -45 0 -50 2 -50 22 0 21 0 21 -23 -3 -13 -13
-22 -27 -20 -31 7 -13 132 -9 155 5 29 16 69 56 86 85 13 23 17 148 5 155 -5
2 -19 -7 -32 -20z"/>
<path d="M1965 940 c3 -5 13 -10 21 -10 8 0 14 5 14 10 0 6 -9 10 -21 10 -11
0 -17 -4 -14 -10z"/>
<path d="M3120 940 c0 -5 6 -10 14 -10 8 0 18 5 21 10 3 6 -3 10 -14 10 -12 0
-21 -4 -21 -10z"/>
<path d="M2030 920 c0 -5 12 -10 26 -10 14 0 23 4 19 10 -3 6 -15 10 -26 10
-10 0 -19 -4 -19 -10z"/>
<path d="M3045 920 c-4 -6 5 -10 19 -10 14 0 26 5 26 10 0 6 -9 10 -19 10 -11
0 -23 -4 -26 -10z"/>
<path d="M795 900 c-15 -7 -9 -9 25 -9 33 -1 41 2 30 9 -18 12 -28 12 -55 0z"/>
<path d="M2110 900 c-11 -7 -4 -10 25 -9 31 0 36 2 20 9 -26 11 -28 11 -45 0z"/>
<path d="M2965 900 c-16 -7 -11 -9 20 -9 29 -1 36 2 25 9 -17 11 -19 11 -45 0z"/>
<path d="M4265 900 c-15 -6 -7 -9 30 -9 37 0 45 3 30 9 -11 5 -24 9 -30 9 -5
0 -19 -4 -30 -9z"/>
<path d="M4125 865 c-11 -51 -69 -114 -116 -124 -28 -7 -31 -10 -16 -16 12 -5
32 0 57 14 l37 21 27 -21 c15 -12 30 -18 34 -14 4 4 1 10 -6 12 -26 10 -34 42
-17 77 9 19 15 47 13 63 -4 26 -5 25 -13 -12z"/>
<path d="M2210 870 c20 -13 57 -13 65 0 4 6 -11 10 -37 10 -31 0 -39 -3 -28
-10z"/>
<path d="M2845 870 c8 -13 45 -13 65 0 11 7 3 10 -28 10 -26 0 -41 -4 -37 -10z"/>
<path d="M891 820 c0 -37 2 -41 9 -22 6 13 6 31 0 45 -7 18 -9 14 -9 -23z"/>
<path d="M2346 849 c3 -5 99 -9 214 -9 115 0 211 4 214 9 3 5 -89 9 -214 9
-125 0 -217 -4 -214 -9z"/>
<path d="M4217 839 c-3 -12 -2 -31 3 -42 7 -18 9 -14 9 21 1 46 -4 54 -12 21z"/>
<path d="M1311 823 c0 -7 -15 -26 -32 -43 -18 -16 -27 -30 -20 -30 20 0 63 49
58 68 -3 9 -5 11 -6 5z"/>
<path d="M3800 817 c0 -21 43 -67 62 -67 7 0 1 10 -13 23 -14 12 -31 31 -37
42 -10 18 -11 18 -12 2z"/>
<path d="M1458 790 c12 -11 28 -20 37 -20 8 0 15 -4 15 -10 0 -5 6 -10 14 -10
7 0 19 -7 26 -15 14 -16 40 -20 40 -6 0 5 -8 11 -17 14 -25 8 -97 50 -101 60
-2 4 -11 7 -20 7 -13 0 -12 -4 6 -20z"/>
<path d="M1190 730 c0 -5 9 -10 19 -10 11 0 23 5 26 10 4 6 -5 10 -19 10 -14
0 -26 -4 -26 -10z"/>
<path d="M3530 730 c0 -5 -9 -10 -20 -10 -11 0 -20 -4 -20 -10 0 -14 12 -13
48 6 37 18 40 24 12 24 -11 0 -20 -4 -20 -10z"/>
<path d="M3885 730 c3 -5 15 -10 26 -10 10 0 19 5 19 10 0 6 -12 10 -26 10
-14 0 -23 -4 -19 -10z"/>
<path d="M1600 710 c0 -5 9 -10 19 -10 11 0 21 -5 23 -11 2 -6 13 -10 23 -7
17 3 14 7 -14 21 -39 19 -51 21 -51 7z"/>
<path d="M3445 690 c-3 -5 3 -10 14 -10 12 0 21 5 21 10 0 6 -6 10 -14 10 -8
0 -18 -4 -21 -10z"/>
<path d="M1695 660 c3 -5 13 -10 21 -10 8 0 14 5 14 10 0 6 -9 10 -21 10 -11
0 -17 -4 -14 -10z"/>
<path d="M3390 660 c0 -5 6 -10 14 -10 8 0 18 5 21 10 3 6 -3 10 -14 10 -12 0
-21 -4 -21 -10z"/>
<path d="M1745 640 c3 -5 15 -10 26 -10 11 0 17 5 14 10 -3 6 -15 10 -26 10
-11 0 -17 -4 -14 -10z"/>
<path d="M3335 640 c-3 -5 3 -10 14 -10 11 0 23 5 26 10 3 6 -3 10 -14 10 -11
0 -23 -4 -26 -10z"/>
<path d="M1800 620 c0 -5 12 -10 28 -10 21 0 24 2 12 10 -20 13 -40 13 -40 0z"/>
<path d="M3275 620 c-4 -6 5 -10 19 -10 14 0 26 5 26 10 0 6 -9 10 -19 10 -11
0 -23 -4 -26 -10z"/>
<path d="M1870 590 c20 -13 40 -13 40 0 0 6 -12 10 -27 10 -22 0 -25 -2 -13
-10z"/>
<path d="M3200 590 c0 -13 30 -13 50 0 11 7 7 10 -17 10 -18 0 -33 -4 -33 -10z"/>
<path d="M1935 570 c3 -5 17 -10 31 -10 13 0 24 5 24 10 0 6 -14 10 -31 10
-17 0 -28 -4 -24 -10z"/>
<path d="M3130 570 c0 -5 11 -10 24 -10 14 0 28 5 31 10 4 6 -7 10 -24 10 -17
0 -31 -4 -31 -10z"/>
<path d="M2010 550 c0 -5 17 -10 38 -10 27 0 33 3 22 10 -20 13 -60 13 -60 0z"/>
<path d="M3050 550 c-11 -7 -5 -10 23 -10 20 0 37 5 37 10 0 13 -40 13 -60 0z"/>
<path d="M2115 520 c28 -12 63 -12 70 0 4 6 -12 10 -42 9 -36 0 -43 -3 -28 -9z"/>
<path d="M2935 520 c8 -13 45 -13 65 0 11 7 3 10 -28 10 -26 0 -41 -4 -37 -10z"/>
<path d="M2210 493 c0 -13 5 -23 10 -23 6 0 10 5 10 10 0 6 29 10 68 10 82 1
65 16 -25 22 -60 4 -63 3 -63 -19z"/>
<path d="M2833 511 c-85 -8 -91 -21 -10 -21 38 0 67 -4 67 -10 0 -5 5 -10 10
-10 6 0 10 11 10 25 0 14 -3 24 -7 23 -5 0 -36 -4 -70 -7z"/>
<path d="M2460 482 c-19 -5 -13 -7 25 -12 l50 -5 3 -54 c2 -30 1 -65 -2 -76
-6 -24 -56 -80 -77 -87 -8 -3 -11 -9 -6 -13 4 -5 20 1 35 13 61 49 83 49 144
0 15 -12 31 -18 35 -13 5 4 2 10 -6 13 -7 2 -28 20 -46 40 -38 39 -54 108 -36
155 9 23 16 27 53 28 33 0 38 2 23 9 -22 10 -156 11 -195 2z"/>
<path d="M2190 400 c0 -33 4 -60 10 -60 6 0 10 27 10 60 0 33 -4 60 -10 60 -6
0 -10 -27 -10 -60z"/>
<path d="M2910 401 c0 -34 4 -61 10 -61 6 0 10 24 10 54 0 30 -4 58 -10 61 -6
4 -10 -17 -10 -54z"/>
<path d="M2210 317 c0 -32 90 -100 145 -109 15 -2 21 -12 23 -38 1 -19 5 -45
7 -58 6 -25 72 -92 92 -92 7 0 13 -4 13 -10 0 -6 30 -10 70 -10 40 0 70 4 70
10 0 6 6 10 13 10 20 0 86 67 92 92 2 13 6 39 7 58 2 26 8 36 23 38 37 6 82
31 114 64 31 31 40 58 21 58 -5 0 -10 -6 -10 -14 0 -8 -15 -26 -32 -40 -18
-15 -38 -31 -45 -36 -6 -5 -40 -10 -75 -12 -59 -3 -61 -4 -35 -15 24 -11 27
-18 25 -49 -2 -26 -8 -39 -24 -46 -14 -7 -20 -16 -17 -28 8 -30 -65 -70 -127
-70 -62 0 -135 40 -127 70 3 12 -3 21 -19 29 -19 8 -24 18 -24 46 0 29 5 38
28 48 25 11 23 12 -36 15 -35 2 -69 7 -75 12 -7 5 -27 21 -44 36 -18 14 -33
32 -33 40 0 8 -4 14 -10 14 -5 0 -10 -6 -10 -13z"/>
<path d="M2546 254 c-12 -32 -6 -54 14 -54 13 0 20 7 20 19 0 25 -10 51 -20
51 -4 0 -11 -7 -14 -16z"/>
<path d="M2504 167 c-10 -13 -28 -27 -38 -31 -10 -3 -16 -9 -12 -13 9 -9 50
15 65 39 18 29 8 32 -15 5z"/>
<path d="M2590 184 c0 -16 50 -64 67 -64 8 0 11 5 8 10 -3 6 -11 10 -17 10 -6
0 -21 12 -34 28 -13 15 -24 22 -24 16z"/>
</g>
</svg>
